<?xml version="1.0" standalone="no"?>
<!DOCTYPE svg PUBLIC "-//W3C//DTD SVG 20010904//EN"
 "http://www.w3.org/TR/2001/REC-SVG-20010904/DTD/svg10.dtd">
<svg version="1.0" xmlns="http://www.w3.org/2000/svg"
 width="1024.000000pt" height="1024.000000pt" viewBox="0 0 1024.000000 1024.000000"
 preserveAspectRatio="xMidYMid meet">

<g transform="translate(0.000000,1024.000000) scale(0.100000,-0.100000)"
fill="#000000" stroke="none">
<path d="M4735 9799 c-22 -4 -69 -11 -105 -15 -36 -3 -78 -8 -95 -10 -116 -12
-209 -25 -265 -38 -36 -8 -130 -26 -210 -41 -200 -36 -214 -39 -395 -97 -157
-50 -410 -147 -450 -172 -11 -7 -51 -23 -90 -36 -38 -12 -77 -28 -85 -35 -19
-15 -138 -81 -213 -117 -32 -16 -81 -44 -110 -63 -29 -19 -99 -67 -157 -106
-58 -39 -133 -88 -166 -109 -82 -51 -269 -196 -374 -290 -179 -161 -540 -555
-652 -711 -18 -26 -53 -73 -78 -104 -83 -107 -106 -140 -134 -190 -15 -28 -45
-72 -65 -100 -72 -97 -249 -471 -376 -795 -13 -33 -116 -359 -135 -425 -4 -16
-16 -66 -25 -110 -10 -44 -21 -93 -26 -110 -9 -34 -38 -200 -45 -260 -3 -22
-12 -85 -20 -140 -9 -55 -18 -140 -20 -190 -3 -49 -9 -121 -14 -160 -10 -85
-3 -564 10 -655 5 -36 17 -126 26 -200 8 -74 20 -155 25 -180 6 -25 16 -92 24
-150 7 -58 16 -114 19 -125 11 -38 44 -160 75 -280 33 -125 131 -415 161 -475
9 -19 27 -66 40 -104 12 -38 52 -124 88 -190 36 -67 84 -157 107 -201 75 -147
294 -491 362 -567 18 -21 44 -57 59 -80 15 -24 59 -77 100 -118 40 -41 86 -92
103 -113 130 -166 516 -513 726 -654 39 -26 78 -55 88 -65 10 -10 21 -18 26
-18 4 0 44 -26 87 -57 145 -105 430 -256 694 -368 176 -75 184 -79 255 -100
33 -10 94 -30 135 -46 135 -50 496 -143 614 -159 50 -6 93 -13 97 -16 12 -7
259 -37 364 -43 184 -12 751 -3 869 14 60 8 130 15 155 15 25 0 73 7 106 15
33 8 98 22 145 30 46 9 136 30 200 47 63 17 136 35 162 42 25 6 50 14 54 19 4
4 17 7 28 7 12 0 59 14 106 31 47 17 110 39 140 49 53 18 240 93 305 122 100
44 392 195 414 213 14 12 49 34 76 48 61 30 285 178 340 224 22 18 90 69 150
114 61 44 153 122 206 172 295 283 334 324 429 437 30 36 66 76 80 90 14 14
32 36 40 49 19 30 135 188 160 221 42 52 187 280 247 388 43 77 133 261 133
271 0 5 7 14 15 21 15 13 55 91 70 138 4 13 22 58 41 99 19 42 36 87 38 102 2
14 10 42 18 61 20 46 35 90 60 175 11 39 33 111 50 160 16 50 32 104 34 120 3
17 9 46 15 65 9 30 37 172 55 280 3 19 10 43 16 53 5 10 8 30 7 45 -1 15 1 45
4 67 4 22 9 56 11 75 3 19 9 64 15 100 12 74 32 426 33 563 0 129 -15 429 -27
517 -32 250 -57 406 -86 540 -5 25 -11 54 -13 65 -1 11 -10 34 -18 50 -9 17
-18 54 -22 84 -4 30 -20 86 -36 125 -17 39 -30 75 -30 81 0 5 -11 39 -24 75
-13 36 -36 103 -51 150 -15 47 -55 144 -90 215 -34 72 -70 148 -79 170 -22 51
-126 256 -137 271 -5 6 -21 33 -35 60 -14 27 -56 94 -92 149 -37 55 -78 118
-92 141 -31 50 -104 143 -195 249 -97 114 -108 127 -126 155 -28 41 -154 166
-325 320 -181 163 -262 230 -439 361 -67 50 -291 199 -299 199 -8 0 -249 142
-261 154 -18 18 -101 57 -245 116 -69 28 -145 60 -170 70 -49 21 -300 108
-390 135 -30 9 -62 20 -70 24 -8 4 -40 13 -70 20 -30 7 -89 21 -130 31 -118
29 -160 38 -235 50 -38 6 -113 20 -165 30 -52 10 -126 19 -165 19 -38 1 -117
9 -175 17 -112 15 -637 18 -715 3z m605 -120 c242 -17 319 -26 460 -50 198
-35 355 -68 437 -93 43 -13 94 -27 113 -31 51 -11 312 -98 410 -138 198 -81
258 -107 317 -136 34 -17 73 -35 86 -40 13 -5 51 -26 83 -47 32 -21 84 -51
114 -67 52 -28 109 -65 346 -224 119 -81 128 -88 292 -222 135 -112 222 -190
342 -311 84 -85 280 -303 294 -328 5 -10 16 -23 24 -31 27 -27 98 -128 207
-293 202 -308 315 -520 417 -783 17 -44 31 -82 31 -85 -1 -3 3 -10 8 -16 26
-31 183 -563 181 -614 0 -8 8 -42 18 -75 10 -33 21 -89 25 -125 6 -65 18 -141
35 -235 13 -71 22 -189 34 -465 11 -223 -15 -651 -48 -810 -9 -41 -21 -111
-26 -155 -21 -151 -93 -466 -130 -570 -10 -27 -22 -66 -25 -85 -4 -19 -11 -41
-16 -50 -5 -8 -25 -60 -45 -115 -21 -55 -48 -128 -60 -162 -24 -64 -172 -368
-226 -463 -17 -30 -38 -68 -47 -85 -18 -34 -78 -127 -196 -308 -158 -240 -422
-536 -705 -790 -74 -66 -141 -127 -148 -136 -13 -16 -82 -66 -247 -178 -55
-37 -132 -90 -171 -118 -39 -27 -87 -59 -105 -70 -157 -93 -212 -123 -338
-185 -262 -129 -453 -201 -761 -285 -47 -12 -130 -35 -185 -50 -55 -15 -111
-30 -125 -32 -364 -68 -345 -65 -562 -83 -141 -12 -488 -16 -613 -8 -44 3
-127 9 -185 13 -58 3 -121 10 -140 15 -19 5 -60 11 -90 15 -66 8 -332 60 -410
80 -31 8 -73 17 -95 21 -22 3 -107 31 -190 61 -82 30 -177 63 -211 72 -132 40
-401 158 -574 252 -50 27 -94 49 -98 49 -4 0 -29 15 -57 33 -27 19 -97 65
-153 103 -137 91 -132 88 -242 168 -97 71 -231 182 -353 290 -153 137 -468
474 -525 561 -15 22 -43 60 -63 85 -46 57 -196 281 -229 341 -14 25 -38 66
-55 90 -26 38 -92 162 -164 309 -13 25 -26 52 -31 61 -15 29 -97 233 -110 274
-7 22 -16 45 -20 50 -10 13 -116 329 -126 375 -4 19 -9 40 -11 45 -16 57 -45
184 -54 240 -6 38 -15 95 -20 125 -5 30 -18 123 -29 205 -11 83 -24 175 -29
205 -34 203 -28 604 14 1020 9 84 34 238 50 300 12 49 29 151 26 158 -1 1 5
18 13 37 9 20 15 36 15 38 -1 7 42 199 51 227 4 14 13 45 20 70 43 151 144
417 204 538 18 37 39 83 46 102 8 19 23 51 35 70 12 19 29 53 40 75 10 22 24
46 32 53 7 7 13 20 13 28 0 8 4 14 10 14 5 0 18 17 28 38 45 90 100 177 171
271 31 40 67 89 81 107 315 416 685 788 1003 1006 62 42 125 87 140 99 37 28
193 124 237 145 19 10 49 27 66 40 28 20 246 134 257 134 3 0 48 20 101 45 53
25 99 45 101 45 3 0 33 13 67 29 150 70 325 126 553 176 33 7 78 19 100 25 22
6 60 15 85 20 25 4 81 17 125 28 76 19 231 38 500 63 66 6 122 12 124 14 6 7
348 3 461 -6z"/>
<path d="M4750 9510 c-19 -5 -98 -13 -175 -19 -331 -26 -1008 -211 -1287 -351
-43 -22 -83 -40 -88 -40 -15 0 -290 -155 -485 -274 -71 -43 -280 -191 -345
-245 -232 -192 -452 -409 -655 -646 -153 -179 -335 -443 -424 -613 -8 -15 -28
-49 -46 -77 -57 -90 -65 -104 -65 -116 0 -6 -23 -58 -50 -116 -43 -88 -149
-345 -156 -378 -2 -5 -17 -50 -34 -100 -45 -133 -140 -516 -140 -567 0 -13 -7
-49 -15 -80 -23 -91 -54 -321 -65 -497 -12 -173 -6 -545 10 -691 14 -119 59
-420 65 -431 3 -4 8 -32 11 -61 7 -76 80 -376 119 -493 51 -152 130 -356 170
-442 86 -182 166 -334 219 -415 31 -48 56 -91 56 -94 0 -3 17 -31 38 -62 21
-32 58 -87 83 -123 44 -66 221 -303 243 -324 6 -7 47 -52 91 -101 145 -161
298 -314 394 -392 51 -42 122 -100 157 -129 269 -223 665 -459 1019 -609 118
-49 448 -164 473 -164 8 0 38 -7 66 -15 218 -62 273 -76 366 -94 133 -26 236
-39 375 -47 61 -3 144 -10 185 -14 72 -7 262 -5 495 5 234 9 571 59 735 108
63 19 140 40 170 47 30 7 71 19 90 26 19 7 76 25 125 40 156 47 434 164 573
241 48 26 98 53 112 59 69 31 339 201 490 308 222 158 738 649 804 764 5 9 23
31 40 50 17 18 47 57 67 87 19 29 46 66 58 81 42 55 207 309 235 364 16 30 42
80 59 110 61 110 177 354 177 372 0 8 4 18 8 24 5 5 15 29 22 54 8 25 31 79
51 121 20 41 45 104 54 140 9 35 27 98 40 139 24 76 32 113 61 255 9 44 20 96
24 115 24 106 42 204 50 280 6 47 12 101 16 120 26 158 36 554 20 800 -13 211
-46 524 -63 595 -17 70 -76 304 -92 360 -5 17 -26 82 -46 145 -20 63 -43 135
-50 160 -8 25 -28 81 -45 125 -17 44 -45 115 -61 159 -16 43 -57 126 -89 185
-33 59 -60 110 -60 114 0 12 -151 260 -212 348 -133 193 -283 383 -401 509
-144 153 -405 394 -499 459 -82 58 -104 74 -150 112 -138 116 -574 376 -758
453 -25 10 -79 34 -120 52 -99 43 -301 118 -370 137 -30 8 -122 34 -205 57
-82 22 -188 48 -235 56 -47 8 -130 23 -185 33 -111 21 -214 35 -380 51 -128
12 -613 12 -665 0z m600 -120 c80 -6 181 -16 225 -22 44 -6 91 -12 105 -14 14
-1 52 -7 85 -13 33 -6 92 -15 130 -21 93 -15 324 -73 455 -114 58 -18 132 -41
165 -51 65 -18 323 -121 340 -134 5 -5 89 -48 185 -97 156 -78 224 -117 240
-135 3 -3 43 -29 90 -57 47 -29 102 -64 122 -79 21 -16 68 -50 105 -77 37 -28
89 -67 114 -88 25 -21 49 -38 53 -38 4 0 27 -19 49 -43 23 -23 66 -63 96 -87
200 -164 396 -366 520 -535 24 -33 64 -85 88 -117 23 -31 43 -60 43 -65 0 -4
10 -20 23 -35 45 -55 177 -259 177 -275 0 -2 15 -28 34 -57 43 -67 133 -248
170 -341 35 -86 40 -98 64 -155 11 -25 41 -112 66 -194 25 -81 48 -152 51
-156 8 -13 66 -239 80 -310 7 -36 17 -83 23 -105 6 -22 13 -69 17 -105 8 -87
10 -98 18 -106 4 -4 7 -26 7 -49 0 -23 5 -67 10 -97 15 -77 20 -216 19 -458 0
-246 -1 -259 -24 -525 -12 -140 -79 -529 -109 -630 -13 -44 -27 -97 -30 -117
-7 -40 -125 -368 -150 -416 -9 -17 -23 -52 -32 -77 -17 -50 -131 -287 -204
-420 -60 -111 -168 -281 -259 -405 -42 -58 -84 -116 -93 -130 -74 -115 -507
-557 -648 -662 -19 -14 -46 -36 -60 -48 -144 -127 -372 -276 -712 -465 -62
-34 -246 -120 -280 -130 -13 -4 -54 -21 -93 -38 -133 -58 -544 -178 -720 -211
-155 -29 -264 -46 -325 -52 -25 -2 -90 -9 -145 -14 -203 -22 -605 -15 -875 16
-151 17 -194 25 -550 104 -19 4 -96 26 -171 48 -119 36 -189 62 -449 164 -30
12 -72 32 -93 45 -22 14 -98 53 -169 89 -139 68 -165 83 -268 149 -230 147
-315 207 -390 274 -47 42 -119 103 -160 136 -41 32 -97 80 -124 105 -42 38
-82 78 -243 247 -13 13 -23 27 -23 32 0 4 -14 20 -31 37 -17 16 -64 70 -105
119 -40 50 -86 106 -102 125 -16 19 -50 67 -75 105 -25 39 -55 81 -65 95 -11
14 -20 30 -21 35 -1 6 -10 19 -20 30 -10 11 -38 55 -62 98 -24 43 -61 107 -82
143 -21 36 -45 83 -52 105 -8 22 -23 53 -34 68 -22 30 -58 110 -86 186 -10 28
-22 55 -27 62 -5 7 -16 31 -23 55 -8 24 -26 75 -40 113 -42 109 -65 176 -80
230 -7 28 -18 63 -24 78 -6 16 -11 41 -11 57 0 15 -10 59 -21 96 -21 69 -48
214 -74 399 -8 55 -17 118 -21 140 -4 22 -7 44 -6 49 2 4 -2 43 -8 85 -10 70
-14 566 -6 636 2 17 7 68 11 115 4 47 10 89 13 94 3 5 7 32 8 60 7 102 54 395
74 461 21 67 50 196 50 223 0 15 6 37 14 48 8 11 22 47 31 79 69 237 195 561
226 581 5 3 9 12 9 20 0 8 11 31 24 52 13 20 40 66 60 102 21 36 53 92 73 125
20 33 45 76 57 97 51 89 83 138 135 208 31 41 58 77 61 80 3 3 40 48 82 101
43 53 95 112 117 130 21 19 80 81 129 139 96 112 135 148 332 312 244 203 452
350 586 416 44 21 97 50 120 64 22 14 74 43 115 63 40 20 81 43 89 50 8 7 47
24 85 39 39 15 97 39 130 53 33 15 85 34 115 44 30 10 92 31 138 48 45 17 119
37 163 46 44 8 85 17 90 20 9 6 108 34 148 41 12 3 53 12 90 20 36 9 75 18 86
20 51 12 295 48 340 51 28 1 77 7 110 11 92 13 433 14 595 2z"/>
<path d="M5108 9228 c-9 -7 -35 -60 -58 -117 -22 -58 -46 -111 -52 -119 -9
-11 -37 -13 -123 -11 -117 3 -150 -2 -164 -29 -20 -37 1 -76 90 -166 l88 -89
-35 -96 c-42 -114 -48 -176 -20 -197 41 -29 79 -16 221 75 l77 49 76 -44 c113
-66 161 -85 201 -82 58 5 62 34 23 186 l-33 127 28 23 c144 122 171 158 154
205 -11 28 -36 37 -111 37 -30 0 -85 3 -121 6 l-66 7 -23 68 c-28 80 -89 173
-116 177 -11 1 -27 -3 -36 -10z m56 -197 c36 -123 58 -139 184 -142 50 -1 92
-5 92 -9 0 -5 -28 -32 -62 -60 -72 -60 -80 -74 -68 -121 32 -123 47 -184 45
-187 -2 -2 -16 5 -32 16 -169 115 -194 119 -292 48 -42 -31 -111 -70 -111 -64
0 2 12 35 26 73 14 39 30 87 36 108 l11 37 -68 63 c-37 34 -74 66 -81 70 -33
19 -9 27 74 25 116 -3 137 8 167 87 42 110 45 116 55 110 5 -3 16 -28 24 -54z"/>
<path d="M3601 8946 c-11 -13 -29 -93 -48 -210 l-8 -49 -85 -31 c-140 -51
-173 -80 -155 -136 7 -21 71 -57 177 -99 l58 -23 -3 -134 c-2 -125 -1 -135 20
-155 15 -15 28 -20 45 -15 23 6 117 92 192 176 l39 43 94 -23 c115 -28 171
-30 207 -7 28 19 35 56 14 79 -24 25 -138 197 -138 207 0 5 22 36 48 68 50 60
92 139 92 171 0 11 -9 27 -20 37 -20 18 -23 18 -113 -3 -83 -20 -108 -27 -172
-47 -16 -5 -30 7 -70 56 -81 101 -91 109 -128 109 -19 0 -40 -6 -46 -14z m129
-195 l54 -63 54 6 c30 4 63 11 73 16 10 6 39 14 63 19 l44 8 -26 -41 c-15 -23
-39 -59 -54 -80 -16 -21 -28 -46 -28 -55 0 -9 27 -55 61 -103 33 -49 57 -88
52 -88 -4 0 -53 9 -107 19 -117 23 -120 22 -189 -55 -26 -29 -60 -62 -75 -73
l-27 -19 0 106 0 106 -84 41 c-46 22 -82 45 -82 50 1 6 34 21 74 35 108 38
104 34 111 125 3 44 8 89 10 100 2 11 5 22 5 25 1 2 5 0 9 -5 5 -6 32 -39 62
-74z"/>
<path d="M6560 8918 c-22 -24 -55 -64 -73 -91 -25 -37 -36 -46 -52 -41 -44 13
-221 53 -237 54 -30 0 -56 -34 -52 -68 2 -17 30 -76 63 -131 33 -55 56 -103
51 -106 -20 -12 -140 -218 -140 -240 0 -14 11 -32 27 -45 33 -25 64 -22 191
21 97 33 101 32 158 -38 111 -135 168 -169 210 -122 16 18 20 40 22 156 l4
134 26 10 c45 17 166 80 184 96 12 11 14 21 7 45 -11 39 -26 50 -134 94 -49
20 -92 38 -94 40 -3 2 -10 52 -16 110 -13 116 -33 157 -78 162 -19 2 -35 -7
-67 -40z m60 -193 c4 -109 14 -122 134 -159 32 -10 54 -21 50 -26 -5 -5 -42
-25 -82 -45 -48 -24 -76 -44 -82 -60 -5 -13 -7 -68 -4 -122 l5 -98 -38 41
c-21 22 -57 64 -81 92 -28 34 -51 52 -65 52 -12 0 -62 -11 -111 -25 -49 -14
-91 -23 -93 -21 -5 5 62 117 84 141 43 45 32 102 -32 172 -19 21 -35 41 -35
46 0 10 73 -1 132 -20 26 -8 57 -12 68 -8 11 4 46 39 77 78 54 67 58 70 64 47
4 -14 8 -52 9 -85z"/>
<path d="M2379 8264 c-10 -13 -13 -51 -11 -159 l3 -142 -97 -68 c-117 -84
-124 -90 -124 -121 0 -36 46 -59 170 -84 l108 -23 17 -66 c45 -180 61 -211
105 -211 22 0 37 10 63 43 36 45 117 175 117 189 0 5 58 7 129 6 109 -2 133 1
156 16 45 29 29 66 -70 166 -47 47 -85 91 -85 97 0 6 13 40 29 75 38 86 50
182 25 209 -27 30 -75 24 -163 -21 -44 -22 -82 -44 -86 -50 -10 -16 -20 -12
-61 24 -155 138 -193 158 -225 120z m262 -249 c15 4 52 18 81 32 89 43 102 46
93 26 -35 -80 -58 -161 -51 -186 3 -15 31 -55 61 -87 30 -33 55 -64 55 -70 0
-6 -38 -10 -94 -10 l-95 0 -28 -34 c-15 -19 -44 -65 -63 -101 -19 -37 -36 -63
-37 -59 -2 5 -13 52 -26 104 -22 90 -25 96 -58 112 -18 9 -52 19 -74 22 -62
10 -106 27 -99 38 3 5 37 29 74 53 38 24 74 54 80 65 6 12 11 53 10 93 -3 131
-9 126 71 57 61 -53 75 -60 100 -55z"/>
<path d="M7730 8128 c-50 -35 -97 -67 -104 -72 -9 -6 -43 8 -107 44 -94 54
-128 62 -170 40 -29 -16 -33 -67 -9 -139 41 -130 42 -128 -43 -204 -115 -103
-140 -158 -85 -188 11 -6 77 -12 146 -13 l126 -3 56 -106 c57 -111 80 -140
117 -151 48 -15 82 49 139 261 1 7 20 15 41 18 175 29 204 38 223 65 11 16 20
33 20 39 0 15 -46 56 -133 118 l-79 56 6 46 c4 25 8 83 11 129 3 72 1 86 -16
103 -10 10 -25 19 -33 19 -8 0 -55 -28 -106 -62z m52 -180 c-1 -57 1 -108 5
-114 5 -6 36 -30 71 -53 34 -23 60 -46 57 -51 -3 -4 -43 -14 -91 -21 -83 -12
-86 -13 -103 -48 -10 -20 -22 -52 -26 -71 -4 -19 -15 -50 -25 -69 l-17 -34
-49 99 -49 99 -117 3 -117 3 42 37 c23 21 56 48 74 61 45 30 49 68 19 161 -13
41 -23 77 -20 79 2 2 34 -14 71 -36 104 -62 101 -62 190 1 43 30 80 55 83 56
3 0 4 -46 2 -102z"/>
<path d="M5000 8039 c-261 -21 -485 -121 -647 -288 -97 -99 -187 -270 -214
-406 -11 -55 -34 -273 -50 -460 -5 -66 -16 -163 -24 -215 -7 -52 -17 -115 -20
-140 -14 -92 -65 -235 -107 -303 l-43 -67 -71 0 c-113 0 -233 43 -381 136
-203 128 -317 232 -525 474 -87 102 -184 214 -216 249 -31 35 -72 82 -90 104
-81 100 -287 269 -397 324 -52 27 -156 53 -208 53 -90 0 -190 -43 -266 -114
-30 -28 -129 -154 -158 -201 -150 -245 -228 -430 -238 -566 -7 -77 -5 -86 15
-111 12 -16 28 -28 36 -28 8 0 14 -2 14 -4 0 -2 -18 -55 -39 -117 -49 -144
-75 -233 -96 -334 -10 -44 -28 -129 -42 -190 -13 -60 -29 -157 -35 -214 -12
-117 -1 -161 48 -183 23 -11 25 -16 20 -48 -19 -109 -41 -436 -41 -600 1 -214
21 -575 40 -705 40 -276 100 -517 145 -590 24 -39 69 -60 107 -50 15 3 44 24
65 45 38 41 119 180 147 256 l17 44 34 -45 c41 -55 85 -68 138 -39 36 19 97
84 115 122 15 31 24 27 32 -14 16 -90 89 -174 157 -183 42 -6 44 -8 78 -76 19
-39 48 -92 63 -118 31 -52 30 -54 -14 -32 -52 27 -209 55 -311 55 -87 0 -99
-2 -118 -22 -29 -32 -25 -47 27 -95 141 -132 308 -202 516 -218 74 -6 89 -10
98 -27 9 -17 9 -20 -4 -15 -8 3 -56 9 -105 12 -103 8 -196 -9 -289 -53 -58
-27 -113 -82 -113 -112 0 -27 62 -65 130 -80 30 -7 66 -17 80 -21 46 -17 240
-19 315 -3 127 25 135 26 135 13 0 -7 -11 -24 -24 -38 -42 -45 -86 -138 -86
-182 0 -76 51 -149 105 -149 19 0 23 -7 28 -41 3 -22 13 -49 23 -60 26 -29
114 -69 153 -69 29 0 39 -6 53 -29 9 -16 36 -44 60 -61 39 -29 48 -31 96 -27
29 3 71 15 92 26 l38 20 7 -67 c32 -310 134 -552 231 -552 84 0 131 122 90
230 -33 86 -56 154 -53 157 2 1 27 -27 57 -62 29 -36 72 -82 96 -102 43 -35
45 -35 81 -22 24 10 53 36 86 77 80 102 75 109 -261 392 l-112 94 25 26 c54
56 66 150 29 222 -13 25 -14 35 -4 53 17 31 308 307 358 338 l42 27 0 -25 c0
-65 53 -135 103 -135 41 0 65 15 125 79 97 104 201 274 271 447 l12 30 34 -32
c19 -18 35 -36 35 -41 0 -4 -18 -44 -39 -88 -104 -214 -281 -627 -329 -770
-71 -211 -38 -425 65 -425 41 0 126 43 176 89 24 23 46 41 48 41 2 0 4 -30 4
-68 2 -214 71 -328 186 -305 46 9 141 108 181 187 l35 69 27 -89 c36 -114 67
-175 117 -229 72 -78 141 -82 206 -14 73 76 118 170 148 303 l6 29 21 -44 c57
-116 151 -199 226 -199 46 0 108 60 126 123 19 65 35 191 29 236 l-4 34 46
-51 c57 -63 97 -88 156 -97 40 -6 49 -4 77 19 48 41 64 157 39 291 -11 62
-104 329 -143 413 -25 53 -56 124 -69 157 -13 33 -35 84 -49 112 -14 29 -26
57 -26 62 0 5 -15 42 -34 82 -51 113 -53 132 -18 158 34 24 42 26 42 10 0 -19
107 -232 149 -297 60 -92 195 -229 231 -234 69 -10 120 44 120 127 0 19 3 35
8 35 18 0 144 -145 221 -253 l84 -119 -14 -41 c-22 -65 -18 -164 8 -215 l21
-44 -36 -14 c-20 -8 -46 -19 -57 -24 -11 -5 -50 -22 -86 -38 -85 -38 -175 -99
-239 -163 -70 -70 -69 -101 1 -169 28 -28 59 -50 68 -50 19 0 119 59 172 101
20 16 40 29 43 29 8 0 -60 -95 -107 -150 -51 -58 -59 -80 -39 -102 17 -20 57
-24 67 -7 4 6 17 -9 29 -33 26 -53 106 -111 137 -100 14 6 31 39 60 122 45
129 96 300 112 375 6 28 12 51 13 53 0 1 24 -13 51 -31 73 -49 123 -55 181
-20 26 14 54 35 62 44 13 16 20 17 56 7 51 -14 92 0 134 45 31 33 56 105 47
137 -4 15 2 24 23 35 62 32 89 158 50 242 l-19 43 51 0 c34 0 62 -7 84 -21
106 -65 248 -71 408 -17 145 49 166 66 152 123 -10 38 -102 75 -221 87 -95 11
-106 10 -204 -16 -58 -15 -125 -36 -149 -46 -54 -24 -136 -35 -187 -26 -45 9
-38 16 35 40 30 10 69 27 85 36 17 10 41 21 54 25 14 4 67 32 119 62 l95 55
67 -7 c75 -8 208 13 292 45 28 10 84 43 126 72 131 90 164 122 160 151 -13 93
-367 73 -531 -30 -23 -14 -78 -60 -122 -102 -57 -55 -111 -94 -190 -137 -60
-34 -119 -64 -130 -67 -11 -4 14 26 56 66 42 39 107 108 145 152 81 95 92 104
124 105 42 0 148 62 208 120 71 69 139 170 154 227 6 24 14 46 19 49 15 9 10
40 -10 58 -18 17 -24 15 -123 -23 -120 -47 -177 -81 -233 -139 -42 -44 -134
-204 -135 -235 0 -10 -15 -38 -34 -62 -37 -49 -146 -169 -146 -161 0 3 11 35
24 73 13 37 32 93 42 123 10 30 35 77 57 104 77 99 108 196 109 346 1 135 -8
179 -39 186 -19 5 -32 -1 -59 -27 -54 -52 -123 -154 -151 -222 -23 -56 -25
-71 -19 -152 3 -49 8 -115 12 -145 5 -50 1 -72 -44 -205 -28 -83 -69 -185 -92
-228 -37 -68 -43 -76 -60 -67 -21 11 -17 35 15 84 21 32 52 115 76 201 21 78
25 219 9 306 -12 65 -49 106 -80 89 -31 -17 -97 -141 -120 -223 -22 -85 -27
-230 -9 -307 6 -25 12 -60 12 -79 2 -37 14 -32 -120 -44 -28 -3 -56 -8 -61
-11 -8 -5 -192 203 -192 217 0 2 9 7 20 10 45 12 50 115 9 202 -12 25 -25 48
-30 51 -19 11 -7 22 30 28 75 12 87 68 50 215 -43 171 -121 335 -212 448 -34
43 -79 102 -99 130 l-38 53 34 98 c18 54 39 109 46 121 l12 24 25 -31 c42 -55
124 -67 173 -26 17 15 32 25 34 23 1 -2 19 -29 39 -60 71 -109 143 -149 213
-116 18 9 41 28 50 42 9 14 20 25 24 25 4 0 21 -26 39 -59 86 -163 221 -184
286 -46 8 17 14 24 15 16 0 -29 93 -162 128 -186 62 -42 160 -25 192 34 13 25
30 27 30 5 0 -31 79 -159 132 -214 53 -55 103 -80 161 -80 32 0 93 51 101 86
6 24 9 21 39 -35 62 -115 117 -161 192 -161 28 0 44 7 65 31 16 16 32 39 35
50 5 16 17 0 54 -73 82 -160 122 -211 188 -237 75 -30 137 37 188 201 34 109
46 155 55 208 5 30 15 78 20 105 6 28 13 70 16 95 2 25 11 113 20 195 33 318
22 987 -19 1182 -13 61 -13 63 10 84 12 12 25 36 28 53 6 35 -25 188 -79 386
-21 74 -41 153 -46 175 -5 22 -25 83 -45 135 -68 179 -68 176 -33 211 31 30
31 31 25 113 -3 45 -10 93 -16 107 -5 13 -26 69 -47 124 -40 108 -117 262
-195 392 -64 106 -177 213 -250 237 -97 31 -174 16 -313 -59 -69 -37 -114 -73
-208 -164 -109 -105 -285 -291 -347 -367 -180 -220 -484 -498 -650 -596 -150
-88 -285 -139 -374 -141 -41 -1 -61 4 -86 22 -59 42 -128 174 -151 286 -41
204 -63 391 -89 775 -5 74 -12 144 -15 155 -51 184 -76 237 -166 345 -98 118
-204 198 -305 230 -22 7 -44 16 -50 20 -11 8 -192 55 -245 64 -68 11 -206 13
-300 5z m240 -109 c166 -25 219 -39 338 -92 78 -34 146 -84 216 -159 111 -117
169 -268 182 -474 3 -60 8 -121 9 -135 2 -14 6 -61 10 -105 27 -361 72 -594
140 -722 27 -52 85 -135 116 -169 28 -30 24 -44 -13 -44 -50 0 -105 18 -195
63 -67 34 -84 39 -96 28 -14 -11 -13 -17 5 -57 36 -82 20 -204 -27 -204 -38 0
-129 53 -187 109 -34 34 -70 61 -80 61 -10 0 -18 -1 -19 -2 0 -2 -3 -32 -6
-68 -6 -76 -32 -149 -60 -167 -16 -11 -25 -9 -59 8 -40 19 -174 149 -205 198
-20 32 -35 21 -53 -37 -27 -91 -106 -203 -155 -220 -37 -13 -58 2 -119 81 -39
50 -61 99 -76 170 -9 38 -41 36 -62 -5 -24 -46 -108 -132 -166 -169 -43 -28
-52 -30 -74 -20 -35 15 -64 87 -71 172 -4 47 -11 73 -20 76 -8 3 -41 -21 -81
-59 -92 -90 -169 -129 -197 -102 -20 20 -20 102 0 177 8 32 15 65 15 72 0 18
-31 20 -47 4 -15 -15 -41 -30 -147 -84 -136 -69 -164 -59 -92 33 131 168 186
346 221 722 48 520 61 589 133 720 45 81 186 225 264 268 197 109 460 162 658
132z m-3040 -596 c0 -2 -9 -4 -20 -4 -11 0 -20 4 -20 9 0 5 9 7 20 4 11 -3 20
-7 20 -9z m5850 -9 c0 -2 -10 -9 -22 -15 -22 -11 -22 -10 -4 4 21 17 26 19 26
11z m-95 -65 c-3 -5 -12 -10 -18 -10 -7 0 -6 4 3 10 19 12 23 12 15 0z m-5624
-17 c13 -16 12 -17 -3 -4 -10 7 -18 15 -18 17 0 8 8 3 21 -13z m49 -43 c0 -5
-2 -10 -4 -10 -3 0 -8 5 -11 10 -3 6 -1 10 4 10 6 0 11 -4 11 -10z m5507 -5
c0 -8 -4 -12 -9 -9 -5 3 -6 10 -3 15 9 13 12 11 12 -6z m441 -110 c-3 -3 -9 2
-12 12 -6 14 -5 15 5 6 7 -7 10 -15 7 -18z m-5820 -10 c-3 -3 -9 2 -12 12 -6
14 -5 15 5 6 7 -7 10 -15 7 -18z m43 -42 c13 -16 12 -17 -3 -4 -10 7 -18 15
-18 17 0 8 8 3 21 -13z m5329 -17 c0 -2 -9 -6 -20 -9 -11 -3 -18 -1 -14 4 5 9
34 13 34 5z m338 -21 c-3 -3 -9 2 -12 12 -6 14 -5 15 5 6 7 -7 10 -15 7 -18z
m-5973 -3 c-3 -3 -11 0 -18 7 -9 10 -8 11 6 5 10 -3 15 -9 12 -12z m5835 -16
c0 -2 -7 -7 -16 -10 -8 -3 -12 -2 -9 4 6 10 25 14 25 6z m-447 -46 c-3 -12 -8
-19 -11 -16 -5 6 5 36 12 36 2 0 2 -9 -1 -20z m-5498 1 c3 -5 2 -12 -3 -15 -5
-3 -9 1 -9 9 0 17 3 19 12 6z m5990 -31 c3 -6 -1 -7 -9 -4 -18 7 -21 14 -7 14
6 0 13 -4 16 -10z m-15 -30 c0 -5 -5 -10 -11 -10 -5 0 -7 5 -4 10 3 6 8 10 11
10 2 0 4 -4 4 -10z m-5397 -41 c-8 -8 -13 -7 -18 2 -5 8 -4 10 3 5 7 -4 12 -2
12 5 0 7 3 9 7 6 4 -4 2 -12 -4 -18z m5309 -24 c3 -13 1 -22 -3 -19 -9 5 -13
44 -5 44 2 0 6 -11 8 -25z m-6286 -13 c-17 -16 -18 -16 -5 5 7 12 15 20 18 17
3 -2 -3 -12 -13 -22z m1053 -46 c-2 -2 -13 8 -23 22 l-19 27 24 -22 c12 -12
21 -24 18 -27z m4951 33 c0 -6 -5 -7 -11 -3 -6 3 -14 2 -18 -4 -4 -6 -10 -5
-17 3 -9 9 -6 12 17 13 16 0 29 -4 29 -9z m-5360 -53 c0 -3 -4 -8 -10 -11 -5
-3 -10 -1 -10 4 0 6 5 11 10 11 6 0 10 -2 10 -4z m455 -26 c3 -5 1 -10 -4 -10
-6 0 -11 5 -11 10 0 6 2 10 4 10 3 0 8 -4 11 -10z m4945 6 c0 -2 -7 -7 -16
-10 -8 -3 -12 -2 -9 4 6 10 25 14 25 6z m374 -12 c3 -8 2 -12 -4 -9 -6 3 -10
10 -10 16 0 14 7 11 14 -7z m-6384 -8 c0 -2 -8 -10 -17 -17 -16 -13 -17 -12
-4 4 13 16 21 21 21 13z m6277 -38 c-3 -8 -6 -5 -6 6 -1 11 2 17 5 13 3 -3 4
-12 1 -19z m-677 -13 c-13 -14 -27 -25 -32 -25 -5 0 3 11 18 25 15 14 29 25
32 25 3 0 -5 -11 -18 -25z m-4469 -2 c13 -16 12 -17 -3 -4 -10 7 -18 15 -18
17 0 8 8 3 21 -13z m59 -75 c0 -6 -3 -8 -7 -5 -3 4 -13 1 -21 -6 -13 -10 -14
-9 -3 11 12 22 31 22 31 0z m-404 -16 c-17 -16 -18 -16 -5 5 7 12 15 20 18 17
3 -2 -3 -12 -13 -22z m-159 -24 c-3 -7 -5 -2 -5 12 0 14 2 19 5 13 2 -7 2 -19
0 -25z m5228 14 c-3 -3 -11 0 -18 7 -9 10 -8 11 6 5 10 -3 15 -9 12 -12z
m-4625 -14 c0 -6 -6 -5 -15 2 -8 7 -15 14 -15 16 0 2 7 1 15 -2 8 -4 15 -11
15 -16z m4930 2 c0 -5 -2 -10 -4 -10 -3 0 -8 5 -11 10 -3 6 -1 10 4 10 6 0 11
-4 11 -10z m-5520 -40 c0 -5 -2 -10 -4 -10 -3 0 -8 5 -11 10 -3 6 -1 10 4 10
6 0 11 -4 11 -10z m4797 -5 c0 -8 -4 -12 -8 -9 -4 2 -11 -1 -16 -8 -4 -7 -17
-20 -28 -28 -11 -8 -4 3 14 23 19 20 36 37 36 37 1 0 2 -7 2 -15z m-4282 -25
c3 -5 1 -10 -4 -10 -6 0 -11 5 -11 10 0 6 2 10 4 10 3 0 8 -4 11 -10z m144
-11 c-22 -13 -31 -11 -17 5 7 8 17 12 22 9 4 -3 2 -9 -5 -14z m4441 17 c0 -3
-4 -8 -10 -11 -5 -3 -10 -1 -10 4 0 6 5 11 10 11 6 0 10 -2 10 -4z m-4399 -43
c13 -17 13 -17 -6 -3 -11 8 -22 16 -24 17 -2 2 0 3 6 3 6 0 17 -8 24 -17z
m4019 -7 c0 -2 -8 -10 -17 -17 -16 -13 -17 -12 -4 4 13 16 21 21 21 13z m450
-76 c0 -5 -2 -10 -4 -10 -3 0 -8 5 -11 10 -3 6 -1 10 4 10 6 0 11 -4 11 -10z
m-5493 -22 c-3 -8 -6 -5 -6 6 -1 11 2 17 5 13 3 -3 4 -12 1 -19z m663 2 c-6
-11 -13 -20 -16 -20 -2 0 0 9 6 20 6 11 13 20 16 20 2 0 0 -9 -6 -20z m4608
-11 c-3 -8 -7 -3 -11 10 -4 17 -3 21 5 13 5 -5 8 -16 6 -23z m-4364 6 c-4 -8
-11 -12 -16 -9 -6 4 -5 10 3 15 19 12 19 11 13 -6z m218 -19 c7 4 8 2 4 -5 -9
-13 -26 -5 -25 12 0 9 2 8 6 -1 2 -6 10 -9 15 -6z m-262 -6 c0 -5 -2 -10 -4
-10 -3 0 -8 5 -11 10 -3 6 -1 10 4 10 6 0 11 -4 11 -10z m-1340 -21 c0 -6 -4
-7 -10 -4 -5 3 -10 11 -10 16 0 6 5 7 10 4 6 -3 10 -11 10 -16z m6110 1 c0 -5
-2 -10 -4 -10 -3 0 -8 5 -11 10 -3 6 -1 10 4 10 6 0 11 -4 11 -10z m-6060 -10
c8 -5 11 -10 5 -10 -5 0 -17 5 -25 10 -8 5 -10 10 -5 10 6 0 17 -5 25 -10z
m33 -5 c-3 -9 -8 -14 -10 -11 -3 3 -2 9 2 15 9 16 15 13 8 -4z m1641 0 c11 -8
16 -15 10 -15 -5 0 -18 7 -28 15 -11 8 -16 15 -10 15 5 0 18 -7 28 -15z m3601
5 c-3 -5 -12 -10 -18 -10 -7 0 -6 4 3 10 19 12 23 12 15 0z m-5301 -26 c9 -24
2 -26 -12 -4 -7 11 -8 20 -3 20 5 0 12 -7 15 -16z m1410 -9 c-4 -8 -8 -15 -10
-15 -2 0 -4 7 -4 15 0 8 4 15 10 15 5 0 7 -7 4 -15z m-1454 -49 c-7 -7 -13 -7
-20 0 -6 6 -3 10 10 10 13 0 16 -4 10 -10z m619 -15 c-6 -2 -18 4 -27 13 -15
15 -15 15 10 4 15 -7 23 -15 17 -17z m941 25 c0 -2 -7 -7 -16 -10 -8 -3 -12
-2 -9 4 6 10 25 14 25 6z m295 -14 c-3 -3 -11 0 -18 7 -9 10 -8 11 6 5 10 -3
15 -9 12 -12z m-2015 -2 c0 -5 -5 -10 -11 -10 -5 0 -7 5 -4 10 3 6 8 10 11 10
2 0 4 -4 4 -10z m1205 -8 c-3 -3 -11 0 -18 7 -9 10 -8 11 6 5 10 -3 15 -9 12
-12z m-790 -12 c3 -5 1 -10 -4 -10 -6 0 -11 5 -11 10 0 6 2 10 4 10 3 0 8 -4
11 -10z m5375 -10 c0 -5 -5 -10 -11 -10 -5 0 -7 5 -4 10 3 6 8 10 11 10 2 0 4
-4 4 -10z m-5549 -33 c-10 -9 -11 -8 -5 6 3 10 9 15 12 12 3 -3 0 -11 -7 -18z
m6099 -35 c0 -15 -2 -15 -10 -2 -13 20 -13 33 0 25 6 -3 10 -14 10 -23z
m-1160 14 c0 -2 -7 -7 -16 -10 -8 -3 -12 -2 -9 4 6 10 25 14 25 6z m-2897 -13
c-7 -2 -19 -2 -25 0 -7 3 -2 5 12 5 14 0 19 -2 13 -5z m-1503 -7 c0 -2 -8 -10
-17 -17 -16 -13 -17 -12 -4 4 13 16 21 21 21 13z m5865 -5 c3 -5 2 -12 -3 -15
-5 -3 -9 1 -9 9 0 17 3 19 12 6z m-1608 -17 c-3 -3 -12 -4 -19 -1 -8 3 -5 6 6
6 11 1 17 -2 13 -5z m350 -16 c-3 -8 -6 -5 -6 6 -1 11 2 17 5 13 3 -3 4 -12 1
-19z m163 16 c0 -8 -19 -13 -24 -6 -3 5 1 9 9 9 8 0 15 -2 15 -3z m-4660 -21
c0 -10 -4 -14 -8 -8 -4 6 -11 13 -16 18 -5 4 -2 7 7 7 10 0 17 -8 17 -17z
m852 -15 c-8 -8 -9 -4 -5 13 4 13 8 18 11 10 2 -7 -1 -18 -6 -23z m329 9 c-10
-9 -11 -8 -5 6 3 10 9 15 12 12 3 -3 0 -11 -7 -18z m5299 -22 c0 -5 -5 -3 -10
5 -5 8 -10 20 -10 25 0 6 5 3 10 -5 5 -8 10 -19 10 -25z m-2073 -1 c-3 -3 -12
-4 -19 -1 -8 3 -5 6 6 6 11 1 17 -2 13 -5z m144 -31 c-12 -20 -14 -14 -5 12 4
9 9 14 11 11 3 -2 0 -13 -6 -23z m1129 12 c0 -2 -6 -5 -13 -8 -8 -3 -14 1 -14
8 0 7 6 11 14 8 7 -3 13 -6 13 -8z m-1245 -16 c-4 -5 -12 -9 -18 -8 -9 0 -8 2
1 6 6 2 9 10 6 15 -4 7 -2 8 5 4 6 -4 9 -12 6 -17z m185 -14 c0 -5 -5 -3 -10
5 -5 8 -10 20 -10 25 0 6 5 3 10 -5 5 -8 10 -19 10 -25z m-5239 2 c-10 -9 -11
-8 -5 6 3 10 9 15 12 12 3 -3 0 -11 -7 -18z m1929 19 c0 -3 -4 -8 -10 -11 -5
-3 -10 -1 -10 4 0 6 5 11 10 11 6 0 10 -2 10 -4z m-193 -24 c-10 -10 -17 -25
-18 -33 0 -11 -2 -11 -6 -1 -5 12 23 52 35 52 3 0 -2 -8 -11 -18z m690 -24
c-3 -8 -6 -5 -6 6 -1 11 2 17 5 13 3 -3 4 -12 1 -19z m3680 0 c-3 -8 -6 -5 -6
6 -1 11 2 17 5 13 3 -3 4 -12 1 -19z m-1142 2 c3 -5 1 -10 -4 -10 -6 0 -11 5
-11 10 0 6 2 10 4 10 3 0 8 -4 11 -10z m-4765 -18 c0 -4 -10 -13 -22 -21 -23
-14 -23 -14 -4 8 20 22 26 25 26 13z m377 -14 c-3 -8 -6 -5 -6 6 -1 11 2 17 5
13 3 -3 4 -12 1 -19z m1015 8 c10 6 11 4 0 -7 -10 -11 -15 -10 -30 6 -15 17
-15 18 0 6 9 -7 23 -9 30 -5z m201 7 c-7 -2 -19 -2 -25 0 -7 3 -2 5 12 5 14 0
19 -2 13 -5z m360 -8 c-3 -9 -8 -14 -10 -11 -3 3 -2 9 2 15 9 16 15 13 8 -4z
m3334 -7 c-3 -8 -6 -5 -6 6 -1 11 2 17 5 13 3 -3 4 -12 1 -19z m-3617 -18
c-18 -11 -22 -7 -14 14 5 13 10 14 18 6 8 -8 7 -13 -4 -20z m195 20 c3 -6 -1
-7 -9 -4 -18 7 -21 14 -7 14 6 0 13 -4 16 -10z m3112 -12 c-3 -8 -6 -5 -6 6
-1 11 2 17 5 13 3 -3 4 -12 1 -19z m-4510 -10 c-3 -8 -6 -5 -6 6 -1 11 2 17 5
13 3 -3 4 -12 1 -19z m-464 -3 c-3 -9 -8 -14 -10 -11 -3 3 -2 9 2 15 9 16 15
13 8 -4z m5504 8 c-4 -3 -1 -13 6 -22 11 -14 10 -14 -5 -2 -16 12 -16 31 -1
31 4 0 3 -3 0 -7z m1423 -3 c0 -5 -2 -10 -4 -10 -3 0 -8 5 -11 10 -3 6 -1 10
4 10 6 0 11 -4 11 -10z m-7379 -23 c-7 -7 -14 -8 -21 -1 -6 6 -2 10 12 11 16
2 18 -1 9 -10z m6069 -22 c0 -5 -5 -3 -10 5 -5 8 -10 20 -10 25 0 6 5 3 10 -5
5 -8 10 -19 10 -25z m-4952 0 c-3 -3 -9 2 -12 12 -6 14 -5 15 5 6 7 -7 10 -15
7 -18z m992 20 c0 -2 -9 -9 -20 -15 -16 -9 -18 -8 -14 5 5 13 34 22 34 10z
m-1670 -9 c0 -11 -19 -15 -25 -6 -3 5 1 10 9 10 9 0 16 -2 16 -4z m335 -16 c3
-5 1 -10 -4 -10 -6 0 -11 5 -11 10 0 6 2 10 4 10 3 0 8 -4 11 -10z m590 -8
c-3 -3 -11 0 -18 7 -9 10 -8 11 6 5 10 -3 15 -9 12 -12z m-1140 -2 c3 -6 -1
-7 -9 -4 -18 7 -21 14 -7 14 6 0 13 -4 16 -10z m1715 6 c0 -2 -8 -10 -17 -17
-16 -13 -17 -12 -4 4 13 16 21 21 21 13z m250 -6 c0 -5 -5 -10 -11 -10 -5 0
-7 5 -4 10 3 6 8 10 11 10 2 0 4 -4 4 -10z m2051 -13 c-10 -9 -11 -8 -5 6 3
10 9 15 12 12 3 -3 0 -11 -7 -18z m939 -7 c0 -5 -2 -10 -4 -10 -3 0 -8 5 -11
10 -3 6 -1 10 4 10 6 0 11 -4 11 -10z m90 6 c0 -3 -4 -8 -10 -11 -5 -3 -10 -1
-10 4 0 6 5 11 10 11 6 0 10 -2 10 -4z m-3099 -57 c-9 -21 -10 -20 -6 11 5 44
6 49 12 29 2 -8 -1 -26 -6 -40z m2926 29 c-3 -8 -6 -5 -6 6 -1 11 2 17 5 13 3
-3 4 -12 1 -19z m-4704 -13 c-3 -9 -8 -14 -10 -11 -3 3 -2 9 2 15 9 16 15 13
8 -4z m387 7 c0 -5 -7 -17 -15 -28 -14 -18 -14 -17 -4 9 12 27 19 34 19 19z
m1262 -24 c-8 -8 -9 -4 -5 13 4 13 8 18 11 10 2 -7 -1 -18 -6 -23z m1438 7
c13 -14 21 -25 18 -25 -2 0 -15 11 -28 25 -13 14 -21 25 -18 25 2 0 15 -11 28
-25z m491 8 c13 -16 12 -17 -3 -4 -10 7 -18 15 -18 17 0 8 8 3 21 -13z m3329
7 c0 -5 -5 -10 -11 -10 -5 0 -7 5 -4 10 3 6 8 10 11 10 2 0 4 -4 4 -10z
m-7230 -9 c0 -5 -9 -19 -20 -32 l-20 -24 17 32 c19 34 23 39 23 24z m5707 -11
c3 -10 2 -11 -4 -4 -4 7 -19 14 -33 17 -22 4 -21 5 4 4 17 -1 31 -9 33 -17z
m-5146 -13 c-10 -9 -11 -8 -5 6 3 10 9 15 12 12 3 -3 0 -11 -7 -18z m4016 -13
c-3 -3 -12 -4 -19 -1 -8 3 -5 6 6 6 11 1 17 -2 13 -5z m693 -20 c0 -2 -9 0
-20 6 -11 6 -20 13 -20 16 0 2 9 0 20 -6 11 -6 20 -13 20 -16z m1581 9 c13
-16 12 -17 -3 -4 -10 7 -18 15 -18 17 0 8 8 3 21 -13z m-4131 -13 c0 -5 -5
-10 -11 -10 -5 0 -7 5 -4 10 3 6 8 10 11 10 2 0 4 -4 4 -10z m-1733 -30 c-7
-17 -13 -26 -15 -21 -3 10 15 51 22 51 3 0 -1 -14 -7 -30z m-347 -25 c-7 -9
-15 -13 -17 -11 -6 6 20 36 26 30 2 -2 -2 -10 -9 -19z m-846 0 c3 -8 1 -15 -4
-15 -6 0 -10 7 -10 15 0 8 2 15 4 15 2 0 6 -7 10 -15z m1853 -21 c2 -13 1 -15
-4 -4 -3 8 -11 19 -17 23 -7 6 -6 7 4 4 8 -2 16 -12 17 -23z m5150 4 c-3 -8
-6 -5 -6 6 -1 11 2 17 5 13 3 -3 4 -12 1 -19z m-567 -18 c0 -5 -5 -10 -11 -10
-5 0 -7 5 -4 10 3 6 8 10 11 10 2 0 4 -4 4 -10z m-4483 -6 c-3 -3 -12 -4 -19
-1 -8 3 -5 6 6 6 11 1 17 -2 13 -5z m-870 -10 c-3 -3 -12 -4 -19 -1 -8 3 -5 6
6 6 11 1 17 -2 13 -5z m-176 -27 c-10 -9 -11 -8 -5 6 3 10 9 15 12 12 3 -3 0
-11 -7 -18z m894 13 c3 -5 2 -10 -4 -10 -5 0 -13 5 -16 10 -3 6 -2 10 4 10 5
0 13 -4 16 -10z m1662 -16 c-3 -3 -12 -4 -19 -1 -8 3 -5 6 6 6 11 1 17 -2 13
-5z m80 0 c-3 -3 -12 -4 -19 -1 -8 3 -5 6 6 6 11 1 17 -2 13 -5z m70 0 c-3 -3
-12 -4 -19 -1 -8 3 -5 6 6 6 11 1 17 -2 13 -5z m210 0 c-3 -3 -12 -4 -19 -1
-8 3 -5 6 6 6 11 1 17 -2 13 -5z m3700 -66 c-3 -8 -6 -5 -6 6 -1 11 2 17 5 13
3 -3 4 -12 1 -19z m-4314 -35 c-7 -2 -19 -2 -25 0 -7 3 -2 5 12 5 14 0 19 -2
13 -5z m162 -2 c3 -5 2 -12 -3 -15 -5 -3 -9 1 -9 9 0 17 3 19 12 6z m50 -1
c-3 -5 -11 -10 -16 -10 -6 0 -7 5 -4 10 3 6 11 10 16 10 6 0 7 -4 4 -10z m182
4 c-3 -3 -12 -4 -19 -1 -8 3 -5 6 6 6 11 1 17 -2 13 -5z m293 -4 c0 -5 -5 -10
-11 -10 -5 0 -7 5 -4 10 3 6 8 10 11 10 2 0 4 -4 4 -10z m117 -10 c3 -10 2
-11 -4 -4 -4 6 -15 14 -23 17 -11 5 -9 6 4 4 11 -1 21 -9 23 -17z m111 13
c-10 -2 -28 -2 -40 0 -13 2 -5 4 17 4 22 1 32 -1 23 -4z m-598 -18 c0 -8 -2
-15 -4 -15 -2 0 -6 7 -10 15 -3 8 -1 15 4 15 6 0 10 -7 10 -15z m170 11 c0
-11 -19 -15 -25 -6 -3 5 1 10 9 10 9 0 16 -2 16 -4z m480 -6 c0 -5 -7 -7 -15
-4 -8 4 -15 8 -15 10 0 2 7 4 15 4 8 0 15 -4 15 -10z m-726 -16 c3 -8 2 -12
-4 -9 -6 3 -10 10 -10 16 0 14 7 11 14 -7z m2147 -1 c13 -16 12 -17 -3 -4 -10
7 -18 15 -18 17 0 8 8 3 21 -13z m-2456 -21 c-12 -12 -33 -10 -28 3 2 8 11 11
19 8 8 -3 12 -8 9 -11z m205 -2 c0 -5 -5 -10 -11 -10 -5 0 -7 5 -4 10 3 6 8
10 11 10 2 0 4 -4 4 -10z m350 -10 c0 -5 -10 -10 -22 -9 -22 0 -22 1 -3 9 11
5 21 9 23 9 1 1 2 -3 2 -9z m2365 -10 c10 -11 16 -20 13 -20 -3 0 -13 9 -23
20 -10 11 -16 20 -13 20 3 0 13 -9 23 -20z m-5325 -24 c0 -3 -4 -8 -10 -11 -5
-3 -10 -1 -10 4 0 6 5 11 10 11 6 0 10 -2 10 -4z m-63 -48 c-3 -7 -5 -2 -5 12
0 14 2 19 5 13 2 -7 2 -19 0 -25z m2553 -18 c0 -5 -5 -10 -11 -10 -5 0 -7 5
-4 10 3 6 8 10 11 10 2 0 4 -4 4 -10z m-2460 -10 c0 -5 -5 -10 -11 -10 -5 0
-7 5 -4 10 3 6 8 10 11 10 2 0 4 -4 4 -10z m3549 -24 c-3 -3 -11 5 -18 17 -13
21 -12 21 5 5 10 -10 16 -20 13 -22z m-2162 -1 c0 -8 -4 -12 -9 -9 -5 3 -6 10
-3 15 9 13 12 11 12 -6z m-2024 -30 c-3 -9 -8 -14 -10 -11 -3 3 -2 9 2 15 9
16 15 13 8 -4z m4534 -27 c-3 -8 -6 -5 -6 6 -1 11 2 17 5 13 3 -3 4 -12 1 -19z
m1848 -18 c3 -6 -1 -7 -9 -4 -18 7 -21 14 -7 14 6 0 13 -4 16 -10z m-4995 -10
c0 -5 -5 -10 -11 -10 -5 0 -7 5 -4 10 3 6 8 10 11 10 2 0 4 -4 4 -10z m2960 0
c0 -5 -5 -10 -11 -10 -5 0 -7 5 -4 10 3 6 8 10 11 10 2 0 4 -4 4 -10z m1620 6
c0 -3 -4 -8 -10 -11 -5 -3 -10 -1 -10 4 0 6 5 11 10 11 6 0 10 -2 10 -4z
m-5999 -23 c13 -16 12 -17 -3 -4 -17 13 -22 21 -14 21 2 0 10 -8 17 -17z m562
2 c-3 -9 -8 -14 -10 -11 -3 3 -2 9 2 15 9 16 15 13 8 -4z m6207 -31 c0 -8 -4
-14 -8 -14 -4 0 -8 9 -8 19 0 11 4 17 8 15 4 -3 8 -12 8 -20z m-6037 -8 c4
-10 0 -12 -15 -8 -15 4 -17 7 -6 13 17 11 15 11 21 -5z m94 -18 c-3 -7 -5 -2
-5 12 0 14 2 19 5 13 2 -7 2 -19 0 -25z m1010 -20 c-3 -8 -6 -5 -6 6 -1 11 2
17 5 13 3 -3 4 -12 1 -19z m-1177 8 c0 -2 -7 -7 -16 -10 -8 -3 -12 -2 -9 4 6
10 25 14 25 6z m-102 -31 c-3 -3 -9 2 -12 12 -6 14 -5 15 5 6 7 -7 10 -15 7
-18z m727 -3 c-3 -3 -11 0 -18 7 -9 10 -8 11 6 5 10 -3 15 -9 12 -12z m455 8
c0 -5 -2 -10 -4 -10 -3 0 -8 5 -11 10 -3 6 -1 10 4 10 6 0 11 -4 11 -10z
m5580 0 c8 -5 11 -10 5 -10 -5 0 -17 5 -25 10 -8 5 -10 10 -5 10 6 0 17 -5 25
-10z m-5813 -22 c-3 -8 -6 -5 -6 6 -1 11 2 17 5 13 3 -3 4 -12 1 -19z m4497
14 c2 -4 -4 -9 -15 -9 -11 -1 -17 2 -14 8 7 11 22 12 29 1z m1036 4 c0 -3 -4
-8 -10 -11 -5 -3 -10 -1 -10 4 0 6 5 11 10 11 6 0 10 -2 10 -4z m-5860 -16 c0
-5 -5 -10 -11 -10 -5 0 -7 5 -4 10 3 6 8 10 11 10 2 0 4 -4 4 -10z m2430 0 c0
-5 -5 -10 -11 -10 -5 0 -7 5 -4 10 3 6 8 10 11 10 2 0 4 -4 4 -10z m2473 -5
c-3 -9 -8 -14 -10 -11 -3 3 -2 9 2 15 9 16 15 13 8 -4z m-5946 -32 c-3 -10 -5
-4 -5 12 0 17 2 24 5 18 2 -7 2 -21 0 -30z m923 33 c0 -3 -4 -8 -10 -11 -5 -3
-10 -1 -10 4 0 6 5 11 10 11 6 0 10 -2 10 -4z m770 -11 c7 -9 8 -15 2 -15 -5
0 -12 7 -16 15 -3 8 -4 15 -2 15 2 0 9 -7 16 -15z m-1360 1 c0 -3 -4 -8 -10
-11 -5 -3 -10 -1 -10 4 0 6 5 11 10 11 6 0 10 -2 10 -4z m803 -3 c-7 -2 -13
-12 -13 -20 0 -9 -3 -14 -6 -10 -10 10 4 37 18 36 10 0 10 -2 1 -6z m2554 1
c-3 -3 -12 -4 -19 -1 -8 3 -5 6 6 6 11 1 17 -2 13 -5z m-3233 -13 c4 -5 -3 -7
-14 -4 -23 6 -26 13 -6 13 8 0 17 -4 20 -9z m6243 -23 c-3 -7 -5 -2 -5 12 0
14 2 19 5 13 2 -7 2 -19 0 -25z m-5250 -25 c-3 -10 -5 -4 -5 12 0 17 2 24 5
18 2 -7 2 -21 0 -30z m4530 5 c-3 -7 -5 -2 -5 12 0 14 2 19 5 13 2 -7 2 -19 0
-25z m940 26 c-3 -3 -12 -4 -19 -1 -8 3 -5 6 6 6 11 1 17 -2 13 -5z m-6602
-45 c11 -16 1 -19 -13 -3 -7 8 -8 14 -3 14 5 0 13 -5 16 -11z m-528 -21 c-3
-8 -6 -5 -6 6 -1 11 2 17 5 13 3 -3 4 -12 1 -19z m6310 -15 c-3 -10 -5 -4 -5
12 0 17 2 24 5 18 2 -7 2 -21 0 -30z m-3404 20 c-7 -2 -19 -2 -25 0 -7 3 -2 5
12 5 14 0 19 -2 13 -5z m406 -518 c1 -289 -2 -525 -7 -525 -10 0 -99 93 -148
155 -21 28 -43 53 -49 57 -6 5 -11 159 -11 423 l-2 415 108 0 108 0 1 -525z
m549 510 c4 -4 8 -296 10 -649 l3 -643 -50 -22 c-62 -26 -80 -26 -142 0 l-49
21 0 654 0 654 111 -4 c61 -3 114 -8 117 -11z m553 -240 c2 -336 5 -442 13
-493 6 -38 3 -48 -26 -90 -33 -47 -185 -212 -197 -212 -3 0 -5 233 -4 517 l2
518 73 5 c40 3 88 5 106 5 l32 1 1 -251z m220 238 c13 -17 13 -17 -6 -3 -11 8
-22 16 -24 17 -2 2 0 3 6 3 6 0 17 -8 24 -17z m1559 7 c0 -5 -2 -10 -4 -10 -3
0 -8 5 -11 10 -3 6 -1 10 4 10 6 0 11 -4 11 -10z m-5310 -10 c0 -5 -2 -10 -4
-10 -3 0 -8 5 -11 10 -3 6 -1 10 4 10 6 0 11 -4 11 -10z m357 -12 c-3 -8 -6
-5 -6 6 -1 11 2 17 5 13 3 -3 4 -12 1 -19z m2236 15 c-7 -2 -19 -2 -25 0 -7 3
-2 5 12 5 14 0 19 -2 13 -5z m660 0 c-7 -2 -19 -2 -25 0 -7 3 -2 5 12 5 14 0
19 -2 13 -5z m-3512 -20 c8 -9 9 -14 2 -10 -6 4 -14 1 -16 -5 -3 -7 -6 -3 -6
10 -1 26 2 27 20 5z m2239 3 c0 -3 -4 -8 -10 -11 -5 -3 -10 -1 -10 4 0 6 5 11
10 11 6 0 10 -2 10 -4z m-2180 -41 c0 -5 -5 -3 -10 5 -5 8 -10 20 -10 25 0 6
5 3 10 -5 5 -8 10 -19 10 -25z m287 3 c-3 -7 -5 -2 -5 12 0 14 2 19 5 13 2 -7
2 -19 0 -25z m6271 1 c-3 -8 -7 -3 -11 10 -4 17 -3 21 5 13 5 -5 8 -16 6 -23z
m-6361 -11 c-3 -7 -5 -2 -5 12 0 14 2 19 5 13 2 -7 2 -19 0 -25z m140 10 c-3
-8 -6 -5 -6 6 -1 11 2 17 5 13 3 -3 4 -12 1 -19z m4540 -15 c-3 -10 -5 -4 -5
12 0 17 2 24 5 18 2 -7 2 -21 0 -30z m1020 -5 c-3 -7 -5 -2 -5 12 0 14 2 19 5
13 2 -7 2 -19 0 -25z m-6122 1 c11 -16 1 -19 -13 -3 -7 8 -8 14 -3 14 5 0 13
-5 16 -11z m1802 -11 c-3 -8 -6 -5 -6 6 -1 11 2 17 5 13 3 -3 4 -12 1 -19z
m4410 0 c-3 -8 -6 -5 -6 6 -1 11 2 17 5 13 3 -3 4 -12 1 -19z m-5190 6 c-3 -3
-12 -4 -19 -1 -8 3 -5 6 6 6 11 1 17 -2 13 -5z m1900 -16 c-3 -8 -6 -5 -6 6
-1 11 2 17 5 13 3 -3 4 -12 1 -19z m560 -10 c-3 -7 -5 -2 -5 12 0 14 2 19 5
13 2 -7 2 -19 0 -25z m2423 17 c0 -8 -2 -15 -4 -15 -2 0 -6 7 -10 15 -3 8 -1
15 4 15 6 0 10 -7 10 -15z m40 5 c0 -5 -2 -10 -4 -10 -3 0 -8 5 -11 10 -3 6
-1 10 4 10 6 0 11 -4 11 -10z m500 6 c0 -2 -8 -10 -17 -17 -16 -13 -17 -12 -4
4 13 16 21 21 21 13z m-5673 -28 c-3 -8 -6 -5 -6 6 -1 11 2 17 5 13 3 -3 4
-12 1 -19z m1073 14 c0 -5 -7 -9 -15 -9 -8 0 -12 4 -9 9 3 4 9 8 15 8 5 0 9
-4 9 -8z m21 -19 c-12 -20 -14 -14 -5 12 4 9 9 14 11 11 3 -2 0 -13 -6 -23z
m4894 17 c-3 -5 -12 -10 -18 -10 -7 0 -6 4 3 10 19 12 23 12 15 0z m-5348 -22
c-3 -8 -6 -5 -6 6 -1 11 2 17 5 13 3 -3 4 -12 1 -19z m-910 -10 c-3 -8 -6 -5
-6 6 -1 11 2 17 5 13 3 -3 4 -12 1 -19z m1200 -10 c-3 -8 -6 -5 -6 6 -1 11 2
17 5 13 3 -3 4 -12 1 -19z m1220 0 c-3 -8 -6 -5 -6 6 -1 11 2 17 5 13 3 -3 4
-12 1 -19z m3490 16 c-3 -3 -12 -4 -19 -1 -8 3 -5 6 6 6 11 1 17 -2 13 -5z
m-184 -19 c-3 -9 -8 -14 -10 -11 -3 3 -2 9 2 15 9 16 15 13 8 -4z m-6253 1 c0
-3 -4 -8 -10 -11 -5 -3 -10 -1 -10 4 0 6 5 11 10 11 6 0 10 -2 10 -4z m1220
-20 c0 -3 -4 -8 -10 -11 -5 -3 -10 -1 -10 4 0 6 5 11 10 11 6 0 10 -2 10 -4z
m2287 -18 c-3 -8 -6 -5 -6 6 -1 11 2 17 5 13 3 -3 4 -12 1 -19z m563 7 c-7 -9
-15 -13 -19 -10 -3 3 1 10 9 15 21 14 24 12 10 -5z m33 0 c-3 -9 -8 -14 -10
-11 -3 3 -2 9 2 15 9 16 15 13 8 -4z m-3708 -5 c3 -6 -1 -7 -9 -4 -18 7 -21
14 -7 14 6 0 13 -4 16 -10z m3165 0 c0 -5 -2 -10 -4 -10 -3 0 -8 5 -11 10 -3
6 -1 10 4 10 6 0 11 -4 11 -10z m1590 -34 c0 -26 -6 -18 -14 19 -5 22 -4 26 4
15 5 -8 10 -24 10 -34z m1345 26 c-3 -3 -11 0 -18 7 -9 10 -8 11 6 5 10 -3 15
-9 12 -12z m-6915 -2 c0 -5 -4 -10 -10 -10 -5 0 -10 5 -10 10 0 6 5 10 10 10
6 0 10 -4 10 -10z m492 -18 c-6 -2 -8 -11 -5 -20 4 -14 3 -14 -5 -3 -7 10 -6
20 1 33 8 12 13 14 16 6 2 -7 -1 -14 -7 -16z m6088 18 c0 -5 -2 -10 -4 -10 -3
0 -8 5 -11 10 -3 6 -1 10 4 10 6 0 11 -4 11 -10z m-3823 -22 c-3 -8 -6 -5 -6
6 -1 11 2 17 5 13 3 -3 4 -12 1 -19z m3783 19 c0 -2 -10 -12 -22 -23 l-23 -19
19 23 c18 21 26 27 26 19z m-5720 -17 c0 -5 -2 -10 -4 -10 -3 0 -8 5 -11 10
-3 6 -1 10 4 10 6 0 11 -4 11 -10z m707 -22 c-3 -7 -5 -2 -5 12 0 14 2 19 5
13 2 -7 2 -19 0 -25z m1490 -5 c-3 -10 -5 -4 -5 12 0 17 2 24 5 18 2 -7 2 -21
0 -30z m-3022 17 c3 -5 1 -10 -4 -10 -6 0 -11 5 -11 10 0 6 2 10 4 10 3 0 8
-4 11 -10z m2996 -13 c-10 -9 -11 -8 -5 6 3 10 9 15 12 12 3 -3 0 -11 -7 -18z
m936 1 c-3 -8 -6 -5 -6 6 -1 11 2 17 5 13 3 -3 4 -12 1 -19z m2752 -11 c12
-15 12 -17 -3 -11 -9 3 -16 13 -16 22 0 8 1 13 3 11 1 -2 9 -12 16 -22z
m-5482 -29 c-3 -7 -5 -2 -5 12 0 14 2 19 5 13 2 -7 2 -19 0 -25z m2170 -45
c-2 -16 -4 -3 -4 27 0 30 2 43 4 28 2 -16 2 -40 0 -55z m-1857 30 c-11 -17
-11 -17 -6 0 3 10 6 24 7 30 0 9 2 9 5 0 3 -7 0 -20 -6 -30z m2417 0 c-3 -10
-5 -4 -5 12 0 17 2 24 5 18 2 -7 2 -21 0 -30z m-2847 23 c0 -3 -4 -8 -10 -11
-5 -3 -10 -1 -10 4 0 6 5 11 10 11 6 0 10 -2 10 -4z m4495 -16 c-3 -5 -12 -10
-18 -10 -7 0 -6 4 3 10 19 12 23 12 15 0z m422 -12 c-3 -8 -6 -5 -6 6 -1 11 2
17 5 13 3 -3 4 -12 1 -19z m-5732 2 c3 -5 1 -10 -4 -10 -6 0 -11 5 -11 10 0 6
2 10 4 10 3 0 8 -4 11 -10z m925 -15 c0 -8 -4 -15 -10 -15 -5 0 -7 7 -4 15 4
8 8 15 10 15 2 0 4 -7 4 -15z m417 -17 c-3 -7 -5 -2 -5 12 0 14 2 19 5 13 2
-7 2 -19 0 -25z m223 17 c0 -8 -4 -15 -10 -15 -5 0 -7 7 -4 15 4 8 8 15 10 15
2 0 4 -7 4 -15z m4497 -17 c-3 -7 -5 -2 -5 12 0 14 2 19 5 13 2 -7 2 -19 0
-25z m603 22 c0 -5 -4 -10 -10 -10 -5 0 -10 5 -10 10 0 6 5 10 10 10 6 0 10
-4 10 -10z m235 0 c3 -5 1 -10 -4 -10 -6 0 -11 5 -11 10 0 6 2 10 4 10 3 0 8
-4 11 -10z m-700 -18 c-3 -3 -11 0 -18 7 -9 10 -8 11 6 5 10 -3 15 -9 12 -12z
m585 -3 c0 -5 -4 -9 -8 -9 -5 0 -9 7 -9 15 0 8 4 12 9 9 4 -3 8 -9 8 -15z
m-1215 -7 c-3 -3 -11 0 -18 7 -9 10 -8 11 6 5 10 -3 15 -9 12 -12z m74 -16
c-3 -3 -11 5 -18 17 -13 21 -12 21 5 5 10 -10 16 -20 13 -22z m101 24 c0 -5
-2 -10 -4 -10 -3 0 -8 5 -11 10 -3 6 -1 10 4 10 6 0 11 -4 11 -10z m918 -31
c1 -37 -5 -35 -12 4 -2 15 -1 27 3 27 4 0 8 -14 9 -31z m-6928 11 c0 -5 -5
-10 -11 -10 -5 0 -7 5 -4 10 3 6 8 10 11 10 2 0 4 -4 4 -10z m638 -25 c-3 -3
-9 2 -12 12 -6 14 -5 15 5 6 7 -7 10 -15 7 -18z m4949 10 c0 -8 -4 -12 -9 -9
-5 3 -6 10 -3 15 9 13 12 11 12 -6z m-5447 -5 c0 -5 -4 -10 -10 -10 -5 0 -10
5 -10 10 0 6 5 10 10 10 6 0 10 -4 10 -10z m117 4 c-3 -4 3 -14 15 -24 16 -13
18 -19 8 -25 -9 -6 -11 -4 -6 4 5 8 0 14 -13 18 -22 6 -30 33 -9 33 6 0 9 -3
5 -6z m1168 -4 c3 -5 2 -10 -4 -10 -5 0 -13 5 -16 10 -3 6 -2 10 4 10 5 0 13
-4 16 -10z m3052 -37 c-3 -10 -5 -2 -5 17 0 19 2 27 5 18 2 -10 2 -26 0 -35z
m-1110 -10 c-3 -10 -5 -2 -5 17 0 19 2 27 5 18 2 -10 2 -26 0 -35z m189 10
c-11 -11 -17 4 -9 23 7 18 8 18 11 1 2 -10 1 -21 -2 -24z m384 33 c0 -3 -4 -8
-10 -11 -5 -3 -10 -1 -10 4 0 6 5 11 10 11 6 0 10 -2 10 -4z m2403 -16 c3 -11
1 -20 -4 -20 -5 0 -9 9 -9 20 0 11 2 20 4 20 2 0 6 -9 9 -20z m-5432 -17 c-12
-20 -14 -14 -5 12 4 9 9 14 11 11 3 -2 0 -13 -6 -23z m5330 -6 c-10 -9 -11 -8
-5 6 3 10 9 15 12 12 3 -3 0 -11 -7 -18z m-5981 3 c0 -5 -5 -10 -11 -10 -5 0
-7 5 -4 10 3 6 8 10 11 10 2 0 4 -4 4 -10z m210 -26 c-5 -19 -12 -39 -16 -42
-4 -4 -4 4 -1 18 4 14 7 33 7 43 0 9 4 17 9 17 5 0 5 -15 1 -36z m2430 1 c0
-5 -5 -3 -10 5 -5 8 -10 20 -10 25 0 6 5 3 10 -5 5 -8 10 -19 10 -25z m1032
-2 c-5 -59 -10 -63 -11 -10 -1 26 3 47 7 47 4 0 6 -17 4 -37z m634 9 c-18 -16
-18 -16 -6 6 6 13 14 21 18 18 3 -4 -2 -14 -12 -24z m-440 -9 c-10 -10 -19 5
-10 18 6 11 8 11 12 0 2 -7 1 -15 -2 -18z m1461 -5 c-3 -7 -5 -2 -5 12 0 14 2
19 5 13 2 -7 2 -19 0 -25z m861 7 c-3 -3 -9 2 -12 12 -6 14 -5 15 5 6 7 -7 10
-15 7 -18z m-3511 9 c-3 -3 -12 -4 -19 -1 -8 3 -5 6 6 6 11 1 17 -2 13 -5z
m3660 -16 c-3 -8 -6 -5 -6 6 -1 11 2 17 5 13 3 -3 4 -12 1 -19z m-6347 2 c0
-5 -5 -10 -11 -10 -5 0 -7 5 -4 10 3 6 8 10 11 10 2 0 4 -4 4 -10z m5840 6 c0
-2 -7 -7 -16 -10 -8 -3 -12 -2 -9 4 6 10 25 14 25 6z m1363 -21 c-3 -9 -8 -14
-10 -11 -3 3 -2 9 2 15 9 16 15 13 8 -4z m-106 -17 c-3 -8 -6 -5 -6 6 -1 11 2
17 5 13 3 -3 4 -12 1 -19z m-6027 -3 c0 -8 -4 -15 -10 -15 -5 0 -7 7 -4 15 4
8 8 15 10 15 2 0 4 -7 4 -15z m-325 -5 c-3 -5 -12 -10 -18 -10 -7 0 -6 4 3 10
19 12 23 12 15 0z m3085 -5 c-7 -9 -15 -13 -19 -10 -3 3 1 10 9 15 21 14 24
12 10 -5z m2177 -17 c-3 -7 -5 -2 -5 12 0 14 2 19 5 13 2 -7 2 -19 0 -25z
m-4011 -48 c13 -5 32 -7 41 -4 47 16 84 36 96 54 15 21 27 17 27 -10 0 -10 15
-58 34 -108 l34 -91 -25 -23 c-33 -30 -139 -167 -193 -248 -72 -110 -102 -162
-127 -230 -44 -116 -53 -154 -56 -221 -3 -83 15 -109 75 -109 21 0 38 -2 38
-4 0 -3 -15 -36 -34 -73 -46 -91 -50 -144 -16 -181 11 -12 20 -25 20 -30 0 -8
-180 -169 -207 -186 -8 -4 -27 4 -46 18 -18 14 -49 32 -69 40 -44 19 -173 23
-212 7 -43 -17 -53 0 -25 41 13 18 27 35 32 36 4 2 7 8 7 13 0 5 15 32 33 61
58 91 74 195 57 369 -7 62 -16 119 -21 125 -19 24 -49 22 -79 -3 -31 -26 -100
-122 -100 -140 0 -5 -11 -24 -25 -43 -14 -19 -23 -40 -21 -46 3 -7 -1 -38 -9
-71 -7 -32 -17 -91 -21 -131 l-7 -73 -24 40 c-22 37 -22 43 -9 63 8 13 24 52
36 87 53 158 6 581 -69 621 -42 22 -74 -16 -110 -128 -28 -86 -43 -166 -50
-267 l-6 -90 -50 90 c-60 108 -95 182 -95 203 0 8 8 24 17 34 23 26 30 136 10
162 -12 17 -10 25 25 82 21 35 38 68 38 73 0 6 5 22 12 36 l11 25 24 -35 c13
-19 34 -37 46 -40 64 -14 89 -9 128 26 33 29 113 145 125 182 8 23 21 22 29
-2 3 -11 22 -34 41 -50 67 -59 148 -32 218 73 20 30 36 60 36 66 0 7 17 -6 38
-29 43 -49 90 -64 143 -47 25 8 49 31 88 83 l54 73 35 -31 c19 -17 45 -34 58
-39z m3909 60 c-3 -5 -12 -10 -18 -10 -7 0 -6 4 3 10 19 12 23 12 15 0z
m-5505 -4 c0 -3 -4 -8 -10 -11 -5 -3 -10 -1 -10 4 0 6 5 11 10 11 6 0 10 -2
10 -4z m2280 -31 c0 -5 -5 -3 -10 5 -5 8 -10 20 -10 25 0 6 5 3 10 -5 5 -8 10
-19 10 -25z m2647 3 c-3 -7 -5 -2 -5 12 0 14 2 19 5 13 2 -7 2 -19 0 -25z
m1460 10 c-3 -8 -6 -5 -6 6 -1 11 2 17 5 13 3 -3 4 -12 1 -19z m-6727 2 c0 -5
-2 -10 -4 -10 -2 0 -12 -3 -22 -7 -16 -6 -17 -5 -4 10 17 19 30 22 30 7z
m1144 -5 c-4 -8 -8 -15 -10 -15 -2 0 -4 7 -4 15 0 8 4 15 10 15 5 0 7 -7 4
-15z m553 -7 c-3 -8 -6 -5 -6 6 -1 11 2 17 5 13 3 -3 4 -12 1 -19z m-277 8 c0
-3 -4 -8 -10 -11 -5 -3 -10 -1 -10 4 0 6 5 11 10 11 6 0 10 -2 10 -4z m1281
-23 c-12 -20 -14 -14 -5 12 4 9 9 14 11 11 3 -2 0 -13 -6 -23z m361 9 c3 -9 1
-26 -3 -37 -6 -15 -8 -11 -8 18 -1 40 4 48 11 19z m3345 2 c-3 -3 -12 -4 -19
-1 -8 3 -5 6 6 6 11 1 17 -2 13 -5z m640 -26 c-3 -7 -5 -2 -5 12 0 14 2 19 5
13 2 -7 2 -19 0 -25z m-7120 0 c-3 -8 -6 -5 -6 6 -1 11 2 17 5 13 3 -3 4 -12
1 -19z m1053 18 c0 -3 -4 -8 -10 -11 -5 -3 -10 -1 -10 4 0 6 5 11 10 11 6 0
10 -2 10 -4z m-830 -10 c0 -3 -4 -8 -10 -11 -5 -3 -10 -1 -10 4 0 6 5 11 10
11 6 0 10 -2 10 -4z m925 -14 c-3 -3 -11 0 -18 7 -9 10 -8 11 6 5 10 -3 15 -9
12 -12z m4132 11 c-4 -3 -1 -13 6 -22 11 -14 10 -14 -5 -2 -16 12 -16 31 -1
31 4 0 3 -3 0 -7z m1088 -11 c-3 -3 -11 0 -18 7 -9 10 -8 11 6 5 10 -3 15 -9
12 -12z m-5470 -10 c-3 -3 -11 0 -18 7 -9 10 -8 11 6 5 10 -3 15 -9 12 -12z
m5582 -7 c0 -8 -4 -12 -9 -9 -4 3 -8 9 -8 15 0 5 4 9 8 9 5 0 9 -7 9 -15z
m-5827 1 c0 -3 -4 -8 -10 -11 -5 -3 -10 -1 -10 4 0 6 5 11 10 11 6 0 10 -2 10
-4z m-650 -10 c0 -3 -4 -8 -10 -11 -5 -3 -10 -1 -10 4 0 6 5 11 10 11 6 0 10
-2 10 -4z m350 -10 c0 -3 -4 -8 -10 -11 -5 -3 -10 -1 -10 4 0 6 5 11 10 11 6
0 10 -2 10 -4z m2378 -21 c-3 -3 -9 2 -12 12 -6 14 -5 15 5 6 7 -7 10 -15 7
-18z m399 -37 c-2 -13 -4 -3 -4 22 0 25 2 35 4 23 2 -13 2 -33 0 -45z m3148
52 c3 -5 1 -10 -4 -10 -6 0 -11 5 -11 10 0 6 2 10 4 10 3 0 8 -4 11 -10z
m-2980 -18 c-3 -3 -11 0 -18 7 -9 10 -8 11 6 5 10 -3 15 -9 12 -12z m22 -4
c-3 -8 -6 -5 -6 6 -1 11 2 17 5 13 3 -3 4 -12 1 -19z m2520 0 c-3 -8 -6 -5 -6
6 -1 11 2 17 5 13 3 -3 4 -12 1 -19z m503 12 c0 -5 -2 -10 -4 -10 -3 0 -8 5
-11 10 -3 6 -1 10 4 10 6 0 11 -4 11 -10z m38 -15 c-3 -3 -9 2 -12 12 -6 14
-5 15 5 6 7 -7 10 -15 7 -18z m-5867 -2 c13 -16 12 -17 -3 -4 -10 7 -18 15
-18 17 0 8 8 3 21 -13z m3376 -5 c-3 -8 -6 -5 -6 6 -1 11 2 17 5 13 3 -3 4
-12 1 -19z m2843 -8 c0 -5 -5 -10 -11 -10 -5 0 -7 5 -4 10 3 6 8 10 11 10 2 0
4 -4 4 -10z m-6871 -37 c8 -15 8 -23 1 -23 -5 0 -10 7 -10 15 0 8 -5 15 -11
15 -5 0 -7 5 -4 11 8 12 8 12 24 -18z m548 5 c-3 -8 -6 -5 -6 6 -1 11 2 17 5
13 3 -3 4 -12 1 -19z m353 -4 c0 -8 -19 -13 -24 -6 -3 5 1 9 9 9 8 0 15 -2 15
-3z m-40 -14 c0 -5 -5 -10 -11 -10 -5 0 -7 5 -4 10 3 6 8 10 11 10 2 0 4 -4 4
-10z m2407 -27 c-3 -10 -5 -4 -5 12 0 17 2 24 5 18 2 -7 2 -21 0 -30z m3188
27 c-3 -5 -12 -10 -18 -10 -7 0 -6 4 3 10 19 12 23 12 15 0z m-6514 -23 c-10
-9 -11 -8 -5 6 3 10 9 15 12 12 3 -3 0 -11 -7 -18z m3519 2 c0 -11 -4 -18 -10
-14 -5 3 -7 12 -3 20 7 21 13 19 13 -6z m568 -14 c-3 -3 -9 2 -12 12 -6 14 -5
15 5 6 7 -7 10 -15 7 -18z m-4001 -7 c-3 -8 -6 -5 -6 6 -1 11 2 17 5 13 3 -3
4 -12 1 -19z m158 -8 c3 -5 1 -10 -4 -10 -6 0 -11 5 -11 10 0 6 2 10 4 10 3 0
8 -4 11 -10z m640 -192 c40 -48 76 -96 80 -108 7 -23 -1 -70 -13 -70 -18 0
-82 73 -82 93 0 31 -29 72 -42 59 -7 -7 -6 -27 2 -61 7 -28 10 -57 7 -64 -3
-7 -2 -32 3 -54 9 -51 -1 -73 -25 -53 -48 40 -102 217 -112 365 l-5 90 57 -55
c32 -30 90 -94 130 -142z m172 186 c-3 -3 -12 -4 -19 -1 -8 3 -5 6 6 6 11 1
17 -2 13 -5z m2270 -56 c-2 -13 -4 -3 -4 22 0 25 2 35 4 23 2 -13 2 -33 0 -45z
m564 39 c-10 -9 -11 -8 -5 6 3 10 9 15 12 12 3 -3 0 -11 -7 -18z m2827 -18
c-3 -8 -7 -3 -11 10 -4 17 -3 21 5 13 5 -5 8 -16 6 -23z m-5677 -13 c-14 -36
-22 -33 -9 5 6 16 12 28 14 26 3 -2 0 -16 -5 -31z m6153 15 c3 -5 -1 -11 -9
-14 -9 -4 -12 -1 -8 9 6 16 10 17 17 5z m-7209 -11 c3 -5 1 -10 -4 -10 -6 0
-11 5 -11 10 0 6 2 10 4 10 3 0 8 -4 11 -10z m3535 -20 c0 -5 -5 -10 -11 -10
-5 0 -7 5 -4 10 3 6 8 10 11 10 2 0 4 -4 4 -10z m-1051 -17 c-28 -36 -79 -93
-79 -87 0 7 82 104 88 104 2 0 -2 -8 -9 -17z m-2118 -24 c-5 -13 -10 -19 -10
-12 -1 15 10 45 15 40 3 -2 0 -15 -5 -28z m2976 -16 c-3 -10 -5 -4 -5 12 0 17
2 24 5 18 2 -7 2 -21 0 -30z m190 5 c-3 -7 -5 -2 -5 12 0 14 2 19 5 13 2 -7 2
-19 0 -25z m3641 8 c-10 -7 -14 -17 -10 -21 4 -5 1 -5 -5 -1 -18 10 -16 24 5
29 27 7 28 7 10 -7z m-6148 1 c0 -2 -10 -12 -22 -23 l-23 -19 19 23 c18 21 26
27 26 19z m-415 -19 c24 -11 35 -38 15 -38 -5 0 -10 6 -10 13 0 8 -10 19 -22
25 -31 14 -16 15 17 0z m3299 -44 c-4 -39 -11 -39 -12 1 -1 20 2 33 7 31 5 -3
7 -17 5 -32z m1107 19 c13 -17 13 -17 -6 -3 -11 8 -22 16 -24 17 -2 2 0 3 6 3
6 0 17 -8 24 -17z m-1481 -28 c0 -19 -4 -35 -8 -35 -4 0 -6 16 -4 35 2 19 6
35 8 35 2 0 4 -16 4 -35z m567 3 c-3 -8 -6 -5 -6 6 -1 11 2 17 5 13 3 -3 4
-12 1 -19z m2873 12 c0 -5 -2 -10 -4 -10 -3 0 -8 5 -11 10 -3 6 -1 10 4 10 6
0 11 -4 11 -10z m-6669 -17 c13 -16 12 -17 -3 -4 -10 7 -18 15 -18 17 0 8 8 3
21 -13z m3772 -18 c-3 -9 -8 -14 -10 -11 -3 3 -2 9 2 15 9 16 15 13 8 -4z
m-1014 -29 c-3 -3 -11 5 -18 17 -13 21 -12 21 5 5 10 -10 16 -20 13 -22z m278
2 c-3 -7 -5 -2 -5 12 0 14 2 19 5 13 2 -7 2 -19 0 -25z m-2742 -31 c-8 -21
-18 -37 -20 -37 -3 0 2 16 10 36 8 20 15 39 15 42 0 3 2 3 5 0 3 -3 -2 -21
-10 -41z m2932 -34 c-2 -16 -4 -5 -4 22 0 28 2 40 4 28 2 -13 2 -35 0 -50z
m-3215 15 c-6 -6 -12 -5 -17 3 -5 8 -4 10 3 5 8 -5 12 1 13 16 1 18 2 19 6 4
3 -10 0 -23 -5 -28z m4772 24 c3 -5 -1 -9 -9 -9 -8 0 -12 4 -9 9 3 4 7 8 9 8
2 0 6 -4 9 -8z m-1747 -39 c-3 -10 -5 -4 -5 12 0 17 2 24 5 18 2 -7 2 -21 0
-30z m1013 33 c0 -2 -8 -10 -17 -17 -16 -13 -17 -12 -4 4 13 16 21 21 21 13z
m-2044 -34 c-17 -16 -18 -16 -5 5 7 12 15 20 18 17 3 -2 -3 -12 -13 -22z m314
18 c0 -5 -2 -10 -4 -10 -3 0 -8 5 -11 10 -3 6 -1 10 4 10 6 0 11 -4 11 -10z
m1277 -12 c-3 -8 -6 -5 -6 6 -1 11 2 17 5 13 3 -3 4 -12 1 -19z m3528 12 c-3
-5 -12 -10 -18 -10 -7 0 -6 4 3 10 19 12 23 12 15 0z m-2395 -15 c0 -2 -6 -5
-13 -8 -8 -3 -14 1 -14 8 0 7 6 11 14 8 7 -3 13 -6 13 -8z m-1006 -11 c3 -8 2
-12 -4 -9 -6 3 -10 10 -10 16 0 14 7 11 14 -7z m-1379 -4 c3 -5 1 -10 -4 -10
-6 0 -11 5 -11 10 0 6 2 10 4 10 3 0 8 -4 11 -10z m1452 -27 c-3 -10 -5 -4 -5
12 0 17 2 24 5 18 2 -7 2 -21 0 -30z m-1657 23 c0 -2 -8 -10 -17 -17 -16 -13
-17 -12 -4 4 13 16 21 21 21 13z m-2159 -39 c-10 -9 -11 -8 -5 6 3 10 9 15 12
12 3 -3 0 -11 -7 -18z m3633 5 c-6 -4 -14 -14 -17 -22 -4 -10 -6 -8 -6 8 -1
15 5 22 17 22 10 0 13 -3 6 -8z m-1344 -12 c0 -5 -5 -10 -11 -10 -5 0 -7 5 -4
10 3 6 8 10 11 10 2 0 4 -4 4 -10z m774 -16 c3 -8 2 -12 -4 -9 -6 3 -10 10
-10 16 0 14 7 11 14 -7z m-429 -4 c3 -5 1 -10 -4 -10 -6 0 -11 5 -11 10 0 6 2
10 4 10 3 0 8 -4 11 -10z m982 -42 c-3 -7 -5 -2 -5 12 0 14 2 19 5 13 2 -7 2
-19 0 -25z m133 1 c-48 -42 -71 -54 -64 -34 3 8 10 13 14 10 5 -3 10 -2 12 3
3 8 60 51 68 51 3 0 -11 -13 -30 -30z m-503 15 c-3 -3 -12 -4 -19 -1 -8 3 -5
6 6 6 11 1 17 -2 13 -5z m-1140 -34 c4 -12 3 -13 -5 -1 -6 8 -17 11 -27 8 -10
-4 -14 -3 -10 4 9 14 37 7 42 -11z m3708 -72 c-5 -70 -14 -108 -36 -156 -28
-63 -73 -130 -68 -102 1 8 -1 45 -5 82 -10 83 6 138 64 214 22 30 43 54 46 54
3 0 3 -42 -1 -92z m-2649 60 l19 -23 -25 20 c-14 11 -27 21 -29 22 -2 2 0 3 6
3 5 0 18 -10 29 -22z m-1216 -16 c0 -5 -7 -9 -15 -9 -8 0 -12 4 -9 9 3 4 9 8
15 8 5 0 9 -4 9 -8z m1298 -38 c-3 -14 -6 -14 -28 5 -14 11 -19 20 -12 21 6 0
12 -4 12 -10 0 -18 20 -11 21 8 0 10 3 12 6 5 2 -7 3 -20 1 -29z m-1268 16 c0
-5 -2 -10 -4 -10 -3 0 -8 5 -11 10 -3 6 -1 10 4 10 6 0 11 -4 11 -10z m150
-20 c0 -5 -7 -7 -15 -4 -8 4 -12 10 -9 15 6 11 24 2 24 -11z m-182 -35 c-3 -3
-9 2 -12 12 -6 14 -5 15 5 6 7 -7 10 -15 7 -18z m246 3 c-3 -4 -9 -8 -15 -8
-5 0 -9 4 -9 8 0 5 7 9 15 9 8 0 12 -4 9 -9z m2483 -30 c-3 -8 -6 -5 -6 6 -1
11 2 17 5 13 3 -3 4 -12 1 -19z m-3957 -3 c0 -8 -2 -15 -4 -15 -2 0 -6 7 -10
15 -3 8 -1 15 4 15 6 0 10 -7 10 -15z m3005 5 c3 -5 1 -10 -4 -10 -6 0 -11 5
-11 10 0 6 2 10 4 10 3 0 8 -4 11 -10z m2479 -82 c-37 -74 -119 -156 -182
-184 -29 -13 -57 -24 -61 -24 -19 0 24 84 66 131 42 46 142 112 170 112 7 0
13 4 13 9 0 4 5 8 10 8 6 0 -1 -23 -16 -52z m-4145 19 c0 -9 -2 -9 -6 0 -3 10
-10 10 -26 2 -21 -10 -21 -9 -3 5 20 16 37 13 35 -7z m2846 -17 c3 -6 -1 -7
-9 -4 -18 7 -21 14 -7 14 6 0 13 -4 16 -10z m-2288 -16 c-3 -3 -12 -4 -19 -1
-8 3 -5 6 6 6 11 1 17 -2 13 -5z m-687 -19 c0 -12 -19 -12 -23 0 -4 9 -1 12 9
8 7 -3 14 -7 14 -8z m116 -25 c0 -11 -4 -20 -8 -20 -10 0 -11 24 -1 33 9 9 9
10 9 -13z m469 -18 c-3 -3 -11 0 -18 7 -9 10 -8 11 6 5 10 -3 15 -9 12 -12z
m-485 -16 c0 -2 -7 -9 -15 -16 -13 -11 -14 -10 -9 4 5 14 24 23 24 12z m114
-22 c3 -8 2 -12 -4 -9 -6 3 -10 10 -10 16 0 14 7 11 14 -7z m-857 -16 c-3 -8
-6 -5 -6 6 -1 11 2 17 5 13 3 -3 4 -12 1 -19z m1263 -2 c0 -2 -7 -6 -15 -10
-8 -3 -15 -1 -15 4 0 6 7 10 15 10 8 0 15 -2 15 -4z m2920 -91 l0 -96 -22 21
c-12 11 -18 23 -15 27 4 3 7 1 7 -5 0 -7 4 -12 9 -12 5 0 9 28 9 63 -1 61 -1
62 -13 27 -7 -19 -8 -37 -3 -38 10 -4 0 -22 -13 -22 -15 0 -10 38 12 85 12 25
23 45 25 45 2 0 4 -43 4 -95z m-3487 50 c-3 -9 -8 -14 -10 -11 -3 3 -2 9 2 15
9 16 15 13 8 -4z m87 -19 c0 -2 -7 -7 -16 -10 -8 -3 -12 -2 -9 4 6 10 25 14
25 6z m-1150 -51 c0 -5 -5 -3 -10 5 -5 8 -10 20 -10 25 0 6 5 3 10 -5 5 -8 10
-19 10 -25z m1175 11 c16 7 -41 -49 -88 -85 -15 -12 -17 -12 -11 3 3 9 10 16
15 16 5 0 20 10 34 22 17 15 23 28 19 42 -3 14 -2 17 4 8 5 -7 16 -10 27 -6z
m816 -19 c-10 -9 -11 -8 -5 6 3 10 9 15 12 12 3 -3 0 -11 -7 -18z m-680 -14
c13 -16 12 -17 -3 -4 -17 13 -22 21 -14 21 2 0 10 -8 17 -17z m2572 -8 c-3 -9
-8 -14 -10 -11 -3 3 -2 9 2 15 9 16 15 13 8 -4z m-2242 -28 c-10 -9 -11 -8 -5
6 3 10 9 15 12 12 3 -3 0 -11 -7 -18z m-629 -26 c2 -17 1 -28 -4 -25 -8 5 -12
54 -4 54 2 0 6 -13 8 -29z m3488 19 c0 -5 -5 -10 -11 -10 -5 0 -7 5 -4 10 3 6
8 10 11 10 2 0 4 -4 4 -10z m1040 -10 c0 -5 -5 -10 -11 -10 -7 0 -17 -8 -24
-17 -10 -13 -16 -14 -26 -7 -8 6 -25 8 -39 4 -22 -7 -23 -8 -6 -15 11 -5 21
-3 26 5 5 9 9 9 15 1 4 -8 -23 -26 -77 -50 -111 -52 -160 -64 -227 -56 l-56 7
30 24 c47 38 156 96 171 90 7 -3 14 -1 16 5 7 21 208 40 208 19z m-1003 -52
c-3 -7 -5 -2 -5 12 0 14 2 19 5 13 2 -7 2 -19 0 -25z m-1707 -8 c0 -5 -2 -10
-4 -10 -3 0 -8 5 -11 10 -3 6 -1 10 4 10 6 0 11 -4 11 -10z m-1708 -35 c-2
-14 3 -48 13 -77 16 -51 16 -51 -7 -72 -236 -210 -318 -292 -318 -314 0 -8 14
-30 30 -49 37 -41 41 -101 10 -151 l-20 -33 -38 28 c-20 15 -56 47 -80 70 -38
37 -41 44 -32 68 21 56 -19 61 -64 9 -34 -39 -73 -47 -129 -25 -50 19 -48 66
4 125 26 31 28 37 17 55 -16 26 -23 26 -56 2 -62 -43 -93 -36 -119 26 -16 40
-3 75 35 92 72 33 231 20 253 -20 14 -27 62 -49 90 -42 30 8 148 103 252 203
44 41 86 78 95 82 10 4 28 16 42 27 14 11 26 21 26 21 1 0 -1 -11 -4 -25z
m2573 7 c-3 -3 -11 0 -18 7 -9 10 -8 11 6 5 10 -3 15 -9 12 -12z m378 -209
c61 -73 118 -135 127 -138 9 -3 35 1 58 9 52 19 153 15 205 -7 47 -20 50 -53
6 -96 -36 -36 -49 -37 -106 -11 -40 18 -44 18 -59 2 -16 -15 -13 -19 35 -62
56 -50 65 -79 29 -104 -32 -23 -72 -20 -105 8 -47 39 -74 50 -84 35 -15 -24
-10 -41 26 -80 38 -43 44 -72 19 -107 -31 -45 -91 -20 -150 65 -31 44 -35 93
-13 170 23 82 22 83 -44 166 -73 90 -118 158 -112 168 4 5 2 8 -4 7 -5 -2 -21
12 -34 30 l-25 34 18 41 c11 24 17 54 14 72 -5 29 -5 29 41 -20 26 -27 96
-110 158 -182z m-2866 195 c-3 -8 -6 -5 -6 6 -1 11 2 17 5 13 3 -3 4 -12 1
-19z m2583 -12 c0 -2 -8 -10 -17 -17 -16 -13 -17 -12 -4 4 13 16 21 21 21 13z
m-2559 -20 c12 7 12 5 0 -9 -15 -19 -31 -14 -31 11 0 14 2 14 9 3 5 -8 14 -10
22 -5z m3272 1 c3 -8 1 -20 -4 -28 -6 -10 -9 -7 -9 14 0 29 5 35 13 14z
m-4758 -167 c3 -6 -1 -7 -9 -4 -18 7 -21 14 -7 14 6 0 13 -4 16 -10z m2679
-46 c3 -8 2 -12 -4 -9 -6 3 -10 10 -10 16 0 14 7 11 14 -7z m-2126 -157 c15
-17 15 -21 2 -25 -18 -6 -76 -65 -106 -107 -22 -30 -22 -30 -50 -13 -16 9 -30
26 -32 37 -5 29 31 89 89 150 l52 55 14 -39 c7 -21 21 -48 31 -58z m2437 73
c3 -5 1 -10 -4 -10 -6 0 -11 5 -11 10 0 6 2 10 4 10 3 0 8 -4 11 -10z m-300
-10 c3 -5 1 -10 -4 -10 -6 0 -11 5 -11 10 0 6 2 10 4 10 3 0 8 -4 11 -10z
m2715 -10 c-34 -11 -60 -11 -35 0 11 5 29 8 40 8 16 0 15 -2 -5 -8z m-205 -40
c-3 -5 -12 -10 -18 -10 -7 0 -6 4 3 10 19 12 23 12 15 0z m-291 -131 c13 -34
15 -51 7 -72 -16 -42 -37 -43 -80 -4 -22 20 -51 43 -65 52 -34 23 -33 34 9 74
19 18 35 42 35 54 0 19 5 17 39 -18 21 -23 45 -61 55 -86z m443 95 c-3 -3 -12
-4 -19 -1 -8 3 -5 6 6 6 11 1 17 -2 13 -5z m-4696 -167 c22 -23 36 -43 30 -45
-6 -2 -19 -18 -31 -37 -15 -25 -29 -34 -55 -37 -72 -8 -117 34 -101 95 3 13
29 49 58 81 l53 57 3 -36 c2 -25 15 -47 43 -78z m1304 83 c3 -5 1 -10 -4 -10
-6 0 -11 5 -11 10 0 6 2 10 4 10 3 0 8 -4 11 -10z m216 -53 c-10 -9 -11 -8 -5
6 3 10 9 15 12 12 3 -3 0 -11 -7 -18z m892 11 c3 -8 -5 -14 -20 -14 -19 -2
-22 1 -12 12 14 17 25 18 32 2z m517 -38 c0 -5 -2 -10 -4 -10 -3 0 -8 5 -11
10 -3 6 -1 10 4 10 6 0 11 -4 11 -10z m1222 -124 c33 -60 14 -126 -36 -126
-30 0 -40 9 -66 64 -13 27 -31 57 -41 67 -17 17 -16 18 1 34 11 10 24 33 31
52 l11 34 41 -47 c23 -26 50 -61 59 -78z m-2901 77 c-8 -15 -10 -15 -11 -2 0
17 10 32 18 25 2 -3 -1 -13 -7 -23z m-1007 -5 c28 -39 20 -101 -17 -150 -40
-52 -73 -66 -115 -49 -81 34 -52 145 53 199 51 27 60 27 79 0z m1593 -90 c-3
-7 -5 -2 -5 12 0 14 2 19 5 13 2 -7 2 -19 0 -25z m1127 16 c3 -8 2 -12 -4 -9
-6 3 -10 10 -10 16 0 14 7 11 14 -7z m983 -76 c28 -27 29 -48 2 -82 -26 -34
-62 -34 -107 1 l-35 26 34 18 c19 9 43 26 53 38 24 26 24 26 53 -1z m-1827
-48 c0 -5 -5 -10 -11 -10 -5 0 -7 5 -4 10 3 6 8 10 11 10 2 0 4 -4 4 -10z
m-573 -22 c-3 -8 -6 -5 -6 6 -1 11 2 17 5 13 3 -3 4 -12 1 -19z m2035 -19
c-18 -16 -38 -27 -44 -23 -6 4 -8 3 -5 -3 6 -9 -68 -74 -167 -147 l-39 -29 6
24 c12 47 -8 53 -42 13 -27 -33 -31 -36 -31 -17 0 25 68 86 88 78 7 -3 10 -1
7 5 -8 13 39 42 58 35 8 -4 18 -2 22 4 4 7 -1 8 -12 4 -49 -17 10 17 72 41 39
15 79 32 90 36 32 14 32 11 -3 -21z m-2328 -47 c3 -5 -1 -9 -9 -9 -8 0 -12 4
-9 9 3 4 7 8 9 8 2 0 6 -4 9 -8z m283 -44 c-3 -8 -6 -5 -6 6 -1 11 2 17 5 13
3 -3 4 -12 1 -19z m-906 -5 c13 -16 12 -17 -3 -4 -10 7 -18 15 -18 17 0 8 8 3
21 -13z m1560 -1 c-7 -2 -18 1 -23 6 -8 8 -4 9 13 5 13 -4 18 -8 10 -11z
m1428 -92 c-20 -60 -36 -110 -34 -110 2 0 -3 -19 -10 -42 -16 -52 -57 -138
-66 -138 -3 0 -3 19 2 43 17 90 8 111 -26 55 -15 -25 -20 -29 -23 -16 -2 9 28
66 66 125 38 59 81 127 96 151 14 23 28 42 29 42 2 0 -13 -49 -34 -110z
m-2819 -66 c0 -8 -4 -12 -10 -9 -5 3 -10 13 -10 21 0 8 5 12 10 9 6 -3 10 -13
10 -21z m880 12 c0 -2 -8 -10 -17 -17 -16 -13 -17 -12 -4 4 13 16 21 21 21 13z
m-70 -52 c0 -2 -9 0 -20 6 -11 6 -20 13 -20 16 0 2 9 0 20 -6 11 -6 20 -13 20
-16z m-843 -21 c0 -17 -12 -17 -27 1 -9 12 -8 15 8 13 10 0 19 -7 19 -14z
m1416 -28 c-3 -9 -8 -14 -10 -11 -3 3 -2 9 2 15 9 16 15 13 8 -4z m-1676 -77
c-3 -8 -6 -5 -6 6 -1 11 2 17 5 13 3 -3 4 -12 1 -19z"/>
<path d="M4402 7507 c-14 -16 -2 -34 40 -60 l28 -17 -39 -39 c-118 -118 -81
-348 68 -418 52 -25 144 -23 200 5 25 12 47 20 49 17 7 -6 -55 -64 -113 -105
-93 -66 -124 -149 -87 -233 23 -52 73 -86 166 -112 120 -35 227 -119 271 -215
59 -128 71 -145 106 -164 31 -17 40 -18 66 -7 34 14 46 36 94 164 27 75 39 93
78 126 78 63 104 78 168 95 114 29 185 100 182 181 -4 69 -17 86 -179 224 -57
48 -60 62 -8 31 19 -11 61 -23 94 -26 75 -7 120 11 184 76 84 83 100 195 45
317 -15 34 -33 57 -50 65 l-25 11 26 28 c19 20 24 33 19 49 -10 31 -43 21
-205 -57 -157 -75 -223 -103 -249 -103 -10 0 -24 -6 -30 -14 -14 -17 8 -43 45
-52 17 -4 23 -11 20 -21 -3 -8 -6 -26 -6 -39 0 -23 -4 -21 -49 25 -66 65 -150
106 -217 106 -61 -1 -106 -26 -184 -102 l-56 -53 -1 39 c-2 32 2 41 18 46 21
7 44 41 32 48 -5 2 -21 7 -38 11 -16 4 -84 33 -150 65 -245 119 -291 135 -313
108z m165 -153 c42 -16 57 -34 29 -34 -8 0 -28 -17 -45 -37 -64 -78 -20 -163
84 -163 67 0 105 46 105 129 l1 36 20 -25 c17 -20 20 -34 16 -73 -7 -82 -78
-137 -175 -137 -92 0 -156 72 -156 176 0 43 5 59 34 97 19 26 37 47 40 47 2 0
24 -7 47 -16z m1135 5 c28 -15 58 -86 58 -139 0 -56 -33 -116 -79 -147 -62
-42 -163 -24 -215 37 -47 57 -47 128 1 171 23 21 25 22 18 4 -25 -64 -12 -113
40 -145 39 -24 66 -25 105 -5 72 37 71 124 0 177 l-30 22 38 17 c20 10 38 18
40 18 2 1 12 -4 24 -10z m-511 -131 c24 -17 51 -38 60 -47 30 -30 78 -109 112
-183 37 -80 75 -123 154 -174 57 -37 73 -59 73 -99 0 -43 -46 -79 -125 -99
-38 -10 -83 -25 -98 -33 -51 -27 -43 -2 17 54 l59 55 61 -4 c56 -3 61 -1 64
19 7 50 -98 74 -166 39 -46 -24 -70 -45 -101 -91 -24 -36 -46 -84 -146 -329
l-28 -68 -24 38 c-13 22 -39 73 -58 114 -103 221 -148 287 -229 331 -48 26
-66 30 -103 26 -52 -6 -89 -36 -79 -62 5 -14 15 -17 49 -12 56 8 110 -17 160
-72 21 -24 37 -45 34 -47 -2 -3 -20 2 -38 10 -19 8 -66 24 -106 35 -88 26
-115 54 -111 115 3 35 9 44 47 71 86 59 148 130 192 219 65 134 165 225 250
226 25 0 49 -10 80 -32z"/>
<path d="M4955 7055 c-14 -13 -25 -33 -25 -44 0 -24 32 -36 60 -21 11 6 26 8
32 4 6 -4 8 -3 4 4 -3 6 -2 13 4 17 16 10 12 52 -6 59 -28 11 -44 6 -69 -19z"/>
<path d="M5187 7073 c-18 -18 -5 -53 27 -72 43 -27 62 -27 69 1 11 41 -68 99
-96 71z"/>
<path d="M4690 6680 c-7 -5 2 -9 23 -12 20 -2 34 -1 31 3 -7 11 -41 17 -54 9z"/>
<path d="M4251 6468 c-34 -68 -38 -93 -16 -102 8 -3 15 -4 15 -3 0 1 14 35 30
75 28 69 31 92 10 92 -5 0 -22 -28 -39 -62z"/>
<path d="M5905 6490 c-7 -11 28 -108 53 -147 15 -25 32 -22 32 5 0 21 -54 137
-68 146 -6 3 -14 2 -17 -4z"/>
<path d="M4413 6293 c-20 -47 -29 -123 -16 -123 10 0 21 22 42 89 23 73 2 100
-26 34z"/>
<path d="M5740 6277 c0 -30 52 -131 65 -128 14 3 7 38 -20 99 -25 55 -45 68
-45 29z"/>
<path d="M4677 6223 c-13 -20 -47 -120 -47 -135 0 -34 21 -17 45 35 28 64 34
99 18 104 -6 2 -13 0 -16 -4z"/>
<path d="M5490 6188 c0 -28 28 -117 43 -136 6 -8 14 -9 20 -3 11 11 -28 134
-49 151 -11 10 -14 8 -14 -12z"/>
<path d="M2100 4131 c0 -5 5 -13 10 -16 6 -3 10 -2 10 4 0 5 -4 13 -10 16 -5
3 -10 2 -10 -4z"/>
<path d="M2122 4104 c-11 -12 -10 -14 7 -14 11 0 28 -10 38 -23 10 -12 17 -20
16 -18 -2 2 2 10 8 18 9 10 8 13 -5 13 -9 0 -16 5 -16 12 0 6 -3 8 -7 5 -3 -4
-11 0 -17 8 -10 12 -13 12 -24 -1z"/>
<path d="M2111 4064 c0 -11 3 -14 6 -6 3 7 2 16 -1 19 -3 4 -6 -2 -5 -13z"/>
<path d="M2204 4033 c4 -6 -2 -14 -11 -16 -14 -4 -13 -5 5 -6 12 0 22 -6 22
-12 0 -6 -9 -8 -20 -4 -12 4 -20 2 -20 -4 0 -6 13 -10 29 -9 16 1 36 -4 45
-11 8 -7 21 -11 28 -8 8 3 2 9 -14 17 -15 7 -25 17 -22 21 3 5 0 9 -7 9 -6 0
-18 8 -26 18 -8 9 -12 12 -9 5z"/>
<path d="M2165 3960 c-3 -5 2 -10 12 -11 11 0 13 -3 5 -6 -6 -2 -10 -9 -6 -14
3 -5 0 -9 -5 -9 -6 0 -11 -5 -11 -10 0 -6 7 -10 16 -8 10 2 19 -3 21 -10 3 -8
-1 -10 -12 -5 -14 5 -16 2 -10 -15 4 -13 2 -22 -4 -22 -6 0 -11 -5 -11 -12 0
-9 3 -9 12 0 8 8 15 9 25 1 9 -8 13 -8 13 -1 0 6 -6 12 -12 15 -10 3 -10 7 0
20 8 9 10 21 6 28 -4 7 -7 25 -6 40 1 29 -20 40 -33 19z"/>
<path d="M2136 3951 c-4 -6 -2 -11 4 -11 6 0 8 -5 5 -10 -9 -14 4 -70 16 -70
6 0 5 8 -1 20 -6 12 -9 28 -6 38 7 21 -8 49 -18 33z"/>
<path d="M2280 3939 c-13 -9 -13 -10 2 -6 9 3 22 0 28 -8 9 -10 6 -15 -11 -20
l-22 -7 24 -13 c33 -18 46 5 23 40 -18 28 -23 29 -44 14z m50 -39 c0 -5 -8
-10 -17 -10 -15 0 -16 2 -3 10 19 12 20 12 20 0z"/>
<path d="M2330 3860 c-13 -8 -12 -10 3 -10 9 0 17 5 17 10 0 12 -1 12 -20 0z"/>
<path d="M7445 3680 c-3 -5 -1 -10 4 -10 6 0 11 5 11 10 0 6 -2 10 -4 10 -3 0
-8 -4 -11 -10z"/>
<path d="M7381 3594 c0 -11 3 -14 6 -6 3 7 2 16 -1 19 -3 4 -6 -2 -5 -13z"/>
<path d="M7749 3493 c-13 -16 -12 -17 4 -4 9 7 17 15 17 17 0 8 -8 3 -21 -13z"/>
<path d="M7749 3469 c-9 -5 -9 -9 -2 -9 6 0 18 -3 27 -6 9 -3 16 -2 16 4 0 15
-25 21 -41 11z"/>
<path d="M7736 3435 c4 -8 7 -15 9 -15 2 0 5 7 9 15 3 9 0 15 -9 15 -9 0 -12
-6 -9 -15z"/>
<path d="M7676 3432 c-3 -5 1 -9 9 -9 8 0 15 4 15 9 0 4 -4 8 -9 8 -6 0 -12
-4 -15 -8z"/>
<path d="M7710 3416 c0 -2 7 -7 16 -10 8 -3 12 -2 9 4 -6 10 -25 14 -25 6z"/>
<path d="M7665 3400 c-3 -6 1 -7 9 -4 18 7 21 14 7 14 -6 0 -13 -4 -16 -10z"/>
<path d="M8050 3210 c18 -12 30 -13 30 -2 0 4 -10 9 -22 9 -18 2 -20 0 -8 -7z"/>
<path d="M7848 3169 c-21 -11 -38 -24 -38 -29 0 -5 -6 -7 -14 -4 -8 3 -21 -5
-30 -17 -18 -27 -13 -37 9 -19 13 11 18 10 30 -6 10 -13 14 -14 15 -5 0 8 6
11 16 7 9 -4 13 -2 8 5 -4 7 0 9 14 5 12 -4 32 -1 44 6 13 7 27 11 31 10 5 -1
7 5 5 15 -4 19 -43 25 -65 10 -7 -5 -18 -7 -25 -4 -8 4 -5 8 10 12 12 4 22 11
22 16 0 5 5 9 11 9 5 0 7 -4 4 -10 -3 -5 -2 -10 4 -10 17 0 21 18 5 24 -19 7
-11 9 -56 -15z m49 -36 c-9 -2 -15 -8 -13 -12 7 -10 -92 -7 -101 4 -5 4 -1 6
8 3 9 -4 21 -3 27 0 6 4 30 8 54 8 24 1 35 0 25 -3z"/>
<path d="M7965 3159 c-4 -6 -4 -13 -1 -16 3 -4 6 -1 6 6 0 8 6 11 16 7 8 -3
12 -2 9 4 -8 13 -22 13 -30 -1z"/>
<path d="M3538 2958 c-7 -19 2 -38 17 -38 21 0 28 19 15 35 -15 18 -26 19 -32
3z"/>
<path d="M3407 2799 c7 -24 30 -36 44 -22 7 7 5 16 -6 27 -24 23 -44 21 -38
-5z"/>
<path d="M3380 2770 c-9 -6 -10 -10 -3 -10 6 0 15 5 18 10 8 12 4 12 -15 0z"/>
<path d="M6567 2959 c7 -7 15 -10 18 -7 3 3 -2 9 -12 12 -14 6 -15 5 -6 -5z"/>
<path d="M6540 2916 c0 -17 5 -26 16 -26 10 0 14 7 12 22 -5 32 -28 35 -28 4z"/>
<path d="M6665 2740 c-3 -5 -1 -10 4 -10 6 0 11 5 11 10 0 6 -2 10 -4 10 -3 0
-8 -4 -11 -10z"/>
</g>
</svg>
